# This file uses centimeters as units for non-parametric coordinates.

v 9.994656 1721.943481 65.438416
v 10.795897 1719.737061 66.084877
v 11.521600 1722.645874 64.873131
v 12.306161 1720.389404 65.243744
v 12.918639 1723.149902 63.971409
v 13.714904 1720.906006 64.192139
v 14.367269 1723.721924 62.504147
v 15.118482 1721.519409 62.823181
v 15.623384 1725.049438 60.412170
v 16.361542 1722.715210 61.014923
v 16.616039 1727.056030 57.966389
v 17.383654 1724.498535 58.832630
v 17.323240 1728.913452 55.807003
v 18.154736 1726.275635 56.736248
v 11.653722 1717.216919 66.732018
v 13.172647 1717.811035 65.606339
v 14.583872 1718.292480 64.332130
v 15.871628 1718.831299 62.906292
v 16.973335 1719.819336 61.263489
v 17.911142 1721.364258 59.291775
v 18.694897 1723.072876 57.237434
v 12.346664 1714.892700 67.194733
v 13.858191 1715.424316 65.845840
v 15.267877 1715.860474 64.381714
v 16.467108 1716.303833 62.882374
v 17.423159 1717.113892 61.315369
v 18.271038 1718.489136 59.490841
v 19.088110 1720.162964 57.496731
v 12.939822 1712.531982 67.531105
v 14.414392 1712.988892 65.999527
v 15.829267 1713.406616 64.402840
v 17.011948 1713.833496 62.927071
v 17.907396 1714.543091 61.475960
v 18.714413 1715.786743 59.816875
v 19.576164 1717.409424 57.918644
v 13.397358 1710.148560 67.707596
v 14.885022 1710.527466 66.061386
v 16.329838 1710.931641 64.351013
v 17.526842 1711.377441 62.891197
v 18.401495 1712.034424 61.553879
v 19.151512 1713.147217 60.048546
v 19.981495 1714.663330 58.246403
v 13.651039 1707.723633 67.648705
v 15.267401 1708.019653 65.978806
v 16.793409 1708.393433 64.173355
v 18.043320 1708.844849 62.688766
v 18.941919 1709.469971 61.411442
v 19.687735 1710.470215 60.018951
v 20.523634 1711.866577 58.357887
v 13.710682 1705.246338 67.352303
v 15.314052 1705.427490 65.677780
v 17.070793 1705.752441 63.825184
v 18.359213 1706.192993 62.289902
v 19.311653 1706.815186 61.043114
v 20.138441 1707.772461 59.780487
v 21.046623 1709.091919 58.302540
v 13.678121 1702.758545 66.899063
v 15.493424 1702.830811 65.228043
v 17.133156 1703.103516 63.299942
v 18.418879 1703.527832 61.709854
v 19.430258 1704.162842 60.471333
v 20.366756 1705.119751 59.319214
v 21.345999 1706.402344 57.974586
v 13.650685 1700.281006 66.355042
v 15.501984 1700.306519 64.588699
v 17.095964 1700.542480 62.620430
v 18.377193 1700.946655 60.998745
v 19.459764 1701.579834 59.736706
v 20.497467 1702.527466 58.599335
v 21.522217 1703.805908 57.284035
v 13.632221 1697.804565 65.700806
v 15.456752 1697.834717 63.781353
v 17.039785 1698.040894 61.800156
v 18.355474 1698.411133 60.181808
v 19.540102 1699.019287 58.874302
v 20.689365 1699.953613 57.665485
v 21.770296 1701.281860 56.321339
v 13.537477 1695.359253 64.859581
v 15.319977 1695.340332 62.800804
v 16.896902 1695.482422 60.822231
v 18.253395 1695.799194 59.215248
v 19.545557 1696.389404 57.868759
v 20.817610 1697.356445 56.599960
v 21.959961 1698.793579 55.237194
v 13.326972 1693.005859 63.828770
v 15.110029 1692.839966 61.679630
v 16.708433 1692.859009 59.713211
v 18.105839 1693.113403 58.114830
v 19.480974 1693.704224 56.715725
v 20.841009 1694.715576 55.367664
v 22.021303 1696.252197 53.984901
v 13.035554 1690.750488 62.668488
v 14.849116 1690.410278 60.498440
v 16.493780 1690.280640 58.546520
v 17.940548 1690.437256 56.932575
v 19.371513 1691.012451 55.455879
v 20.769024 1692.094482 54.017349
v 21.947872 1693.770508 52.633480
v 12.683924 1688.082520 61.211365
v 14.505989 1687.606812 59.099766
v 16.222219 1687.334229 57.165852
v 17.757692 1687.287598 55.481159
v 19.245853 1687.760010 53.871178
v 20.640755 1688.989136 52.328190
v 21.767265 1690.992432 50.990200
v 12.386484 1685.565552 59.838024
v 14.179016 1685.029419 57.820854
v 15.966539 1684.662109 55.904705
v 17.607136 1684.367798 54.121155
v 19.153454 1684.680054 52.362076
v 20.528568 1686.087280 50.726471
v 21.580650 1688.514771 49.460690
v 9.994656 1721.943481 65.438416
v 10.795897 1719.737061 66.084877
v 11.521600 1722.645874 64.873131
v 12.306161 1720.389404 65.243744
v 12.918639 1723.149902 63.971409
v 13.714904 1720.906006 64.192139
v 14.367269 1723.721924 62.504147
v 15.118482 1721.519409 62.823181
v 15.623384 1725.049438 60.412170
v 16.361542 1722.715210 61.014923
v 16.616039 1727.056030 57.966389
v 17.383654 1724.498535 58.832630
v 17.323240 1728.913452 55.807003
v 18.154736 1726.275635 56.736248
v 11.653722 1717.216919 66.732018
v 13.172647 1717.811035 65.606339
v 14.583872 1718.292480 64.332130
v 15.871628 1718.831299 62.906292
v 16.973335 1719.819336 61.263489
v 17.911142 1721.364258 59.291775
v 18.694897 1723.072876 57.237434
v 12.346664 1714.892700 67.194733
v 13.858191 1715.424316 65.845840
v 15.267877 1715.860474 64.381714
v 16.467108 1716.303833 62.882374
v 17.423159 1717.113892 61.315369
v 18.271038 1718.489136 59.490841
v 19.088110 1720.162964 57.496731
v 12.939822 1712.531982 67.531105
v 14.414392 1712.988892 65.999527
v 15.829267 1713.406616 64.402840
v 17.011948 1713.833496 62.927071
v 17.907396 1714.543091 61.475960
v 18.714413 1715.786743 59.816875
v 19.576164 1717.409424 57.918644
v 13.397358 1710.148560 67.707596
v 14.885022 1710.527466 66.061386
v 16.329838 1710.931641 64.351013
v 17.526842 1711.377441 62.891197
v 18.401495 1712.034424 61.553879
v 19.151512 1713.147217 60.048546
v 19.981495 1714.663330 58.246403
v 13.651039 1707.723633 67.648705
v 15.267401 1708.019653 65.978806
v 16.793409 1708.393433 64.173355
v 18.043320 1708.844849 62.688766
v 18.941919 1709.469971 61.411442
v 19.687735 1710.470215 60.018951
v 20.523634 1711.866577 58.357887
v 13.710682 1705.246338 67.352303
v 15.314052 1705.427490 65.677780
v 17.070793 1705.752441 63.825184
v 18.359213 1706.192993 62.289902
v 19.311653 1706.815186 61.043114
v 20.138441 1707.772461 59.780487
v 21.046623 1709.091919 58.302540
v 13.678121 1702.758545 66.899063
v 15.493424 1702.830811 65.228043
v 17.133156 1703.103516 63.299942
v 18.418879 1703.527832 61.709854
v 19.430258 1704.162842 60.471333
v 20.366756 1705.119751 59.319214
v 21.345999 1706.402344 57.974586
v 13.650685 1700.281006 66.355042
v 15.501984 1700.306519 64.588699
v 17.095964 1700.542480 62.620430
v 18.377193 1700.946655 60.998745
v 19.459764 1701.579834 59.736706
v 20.497467 1702.527466 58.599335
v 21.522217 1703.805908 57.284035
v 13.632221 1697.804565 65.700806
v 15.456752 1697.834717 63.781353
v 17.039785 1698.040894 61.800156
v 18.355474 1698.411133 60.181808
v 19.540102 1699.019287 58.874302
v 20.689365 1699.953613 57.665485
v 21.770296 1701.281860 56.321339
v 13.537477 1695.359253 64.859581
v 15.319977 1695.340332 62.800804
v 16.896902 1695.482422 60.822231
v 18.253395 1695.799194 59.215248
v 19.545557 1696.389404 57.868759
v 20.817610 1697.356445 56.599960
v 21.959961 1698.793579 55.237194
v 13.326972 1693.005859 63.828770
v 15.110029 1692.839966 61.679630
v 16.708433 1692.859009 59.713211
v 18.105839 1693.113403 58.114830
v 19.480974 1693.704224 56.715725
v 20.841009 1694.715576 55.367664
v 22.021303 1696.252197 53.984901
v 13.035554 1690.750488 62.668488
v 14.849116 1690.410278 60.498440
v 16.493780 1690.280640 58.546520
v 17.940548 1690.437256 56.932575
v 19.371513 1691.012451 55.455879
v 20.769024 1692.094482 54.017349
v 21.947872 1693.770508 52.633480
v 12.683924 1688.082520 61.211365
v 14.505989 1687.606812 59.099766
v 16.222219 1687.334229 57.165852
v 17.757692 1687.287598 55.481159
v 19.245853 1687.760010 53.871178
v 20.640755 1688.989136 52.328190
v 21.767265 1690.992432 50.990200
v 12.386484 1685.565552 59.838024
v 14.179016 1685.029419 57.820854
v 15.966539 1684.662109 55.904705
v 17.607136 1684.367798 54.121155
v 19.153454 1684.680054 52.362076
v 20.528568 1686.087280 50.726471
v 21.580650 1688.514771 49.460690
vn 0.093818 0.180049 0.979173
vn 0.107652 0.188045 0.976243
vn 0.192499 0.175875 0.965408
vn 0.176558 0.161595 0.970935
vn 0.271635 0.168660 0.947506
vn 0.268714 0.189175 0.944460
vn 0.347028 0.188409 0.918735
vn 0.340403 0.247177 0.907210
vn 0.411341 0.224451 0.883414
vn 0.372154 0.297547 0.879186
vn 0.452222 0.253031 0.855260
vn 0.385822 0.325582 0.863214
vn 0.577930 0.301396 0.758392
vn 0.549672 0.369627 0.749157
vn 0.141565 0.172314 0.974817
vn 0.255296 0.175371 0.950825
vn 0.322544 0.157130 0.933421
vn 0.391543 0.146602 0.908406
vn 0.471192 0.149194 0.869321
vn 0.536390 0.161062 0.828460
vn 0.620070 0.191021 0.760936
vn 0.168954 0.142971 0.975199
vn 0.311736 0.157344 0.937050
vn 0.367170 0.144164 0.918914
vn 0.429054 0.144761 0.891604
vn 0.490291 0.146949 0.859082
vn 0.530978 0.155290 0.833035
vn 0.580411 0.177506 0.794742
vn 0.187709 0.106019 0.976486
vn 0.357570 0.131917 0.924522
vn 0.389782 0.119412 0.913132
vn 0.437525 0.133977 0.889169
vn 0.487518 0.153350 0.859540
vn 0.508472 0.163361 0.845440
vn 0.546048 0.183068 0.817507
vn 0.182539 0.044354 0.982198
vn 0.388892 0.094786 0.916394
vn 0.403385 0.089366 0.910656
vn 0.434921 0.103523 0.894498
vn 0.487784 0.132604 0.862834
vn 0.509920 0.149980 0.847046
vn 0.525381 0.170656 0.833577
vn 0.123460 -0.049357 0.991121
vn 0.393399 0.012706 0.919280
vn 0.416090 0.032995 0.908725
vn 0.438102 0.043428 0.897876
vn 0.488875 0.077024 0.868947
vn 0.509891 0.112660 0.852830
vn 0.503146 0.139661 0.852842
vn 0.005306 -0.096470 0.995322
vn 0.391077 -0.054523 0.918742
vn 0.419381 -0.052600 0.906285
vn 0.448762 -0.043126 0.892610
vn 0.485802 -0.017593 0.873892
vn 0.508837 0.027683 0.860418
vn 0.528347 0.064684 0.846561
vn -0.067464 -0.112957 0.991307
vn 0.392837 -0.096865 0.914492
vn 0.436417 -0.104654 0.893637
vn 0.458638 -0.112609 0.881459
vn 0.475303 -0.098371 0.874306
vn 0.503876 -0.063238 0.861458
vn 0.579440 -0.024598 0.814644
vn -0.018314 -0.126198 0.991836
vn 0.394701 -0.146260 0.907094
vn 0.450967 -0.149199 0.879982
vn 0.459188 -0.146800 0.876126
vn 0.461233 -0.134815 0.876977
vn 0.493682 -0.111073 0.862520
vn 0.603170 -0.071881 0.794367
vn 0.082963 -0.157225 0.984072
vn 0.405960 -0.189175 0.894097
vn 0.449121 -0.190321 0.872965
vn 0.449594 -0.178825 0.875150
vn 0.449439 -0.162104 0.878480
vn 0.490069 -0.140363 0.860308
vn 0.618285 -0.102218 0.779279
vn 0.183096 -0.205747 0.961324
vn 0.413380 -0.233207 0.880188
vn 0.439467 -0.227934 0.868858
vn 0.436565 -0.215618 0.873453
vn 0.442497 -0.202846 0.873527
vn 0.499130 -0.185073 0.846533
vn 0.652478 -0.145667 0.743676
vn 0.250607 -0.262295 0.931878
vn 0.403679 -0.271283 0.873756
vn 0.422506 -0.253730 0.870121
vn 0.426372 -0.240041 0.872117
vn 0.445103 -0.235288 0.864016
vn 0.518905 -0.230155 0.823266
vn 0.695063 -0.198771 0.690925
vn 0.270170 -0.303110 0.913856
vn 0.378999 -0.295366 0.876994
vn 0.398101 -0.270068 0.876686
vn 0.417971 -0.252897 0.872550
vn 0.458163 -0.251956 0.852411
vn 0.550655 -0.259608 0.793337
vn 0.738947 -0.242393 0.628651
vn 0.254443 -0.315391 0.914214
vn 0.351527 -0.301659 0.886245
vn 0.368567 -0.276620 0.887491
vn 0.405761 -0.256275 0.877315
vn 0.476539 -0.252588 0.842087
vn 0.594798 -0.264505 0.759113
vn 0.784289 -0.258806 0.563836
vn 0.194437 -0.319317 0.927486
vn 0.334571 -0.307143 0.890913
vn 0.346759 -0.285198 0.893544
vn 0.382932 -0.261048 0.886125
vn 0.465887 -0.247170 0.849621
vn 0.592958 -0.250873 0.765156
vn 0.773684 -0.255495 0.579772
vn 0.093818 0.180049 0.979173
vn 0.107652 0.188045 0.976243
vn 0.192499 0.175875 0.965408
vn 0.176558 0.161595 0.970935
vn 0.271635 0.168660 0.947506
vn 0.268714 0.189175 0.944460
vn 0.347028 0.188409 0.918735
vn 0.340403 0.247177 0.907210
vn 0.411341 0.224451 0.883414
vn 0.372154 0.297547 0.879186
vn 0.452222 0.253031 0.855260
vn 0.385822 0.325582 0.863214
vn 0.577930 0.301396 0.758392
vn 0.549672 0.369627 0.749157
vn 0.141565 0.172314 0.974817
vn 0.255296 0.175371 0.950825
vn 0.322544 0.157130 0.933421
vn 0.391543 0.146602 0.908406
vn 0.471192 0.149194 0.869321
vn 0.536390 0.161062 0.828460
vn 0.620070 0.191021 0.760936
vn 0.168954 0.142971 0.975199
vn 0.311736 0.157344 0.937050
vn 0.367170 0.144164 0.918914
vn 0.429054 0.144761 0.891604
vn 0.490291 0.146949 0.859082
vn 0.530978 0.155290 0.833035
vn 0.580411 0.177506 0.794742
vn 0.187709 0.106019 0.976486
vn 0.357570 0.131917 0.924522
vn 0.389782 0.119412 0.913132
vn 0.437525 0.133977 0.889169
vn 0.487518 0.153350 0.859540
vn 0.508472 0.163361 0.845440
vn 0.546048 0.183068 0.817507
vn 0.182539 0.044354 0.982198
vn 0.388892 0.094786 0.916394
vn 0.403385 0.089366 0.910656
vn 0.434921 0.103523 0.894498
vn 0.487784 0.132604 0.862834
vn 0.509920 0.149980 0.847046
vn 0.525381 0.170656 0.833577
vn 0.123460 -0.049357 0.991121
vn 0.393399 0.012706 0.919280
vn 0.416090 0.032995 0.908725
vn 0.438102 0.043428 0.897876
vn 0.488875 0.077024 0.868947
vn 0.509891 0.112660 0.852830
vn 0.503146 0.139661 0.852842
vn 0.005306 -0.096470 0.995322
vn 0.391077 -0.054523 0.918742
vn 0.419381 -0.052600 0.906285
vn 0.448762 -0.043126 0.892610
vn 0.485802 -0.017593 0.873892
vn 0.508837 0.027683 0.860418
vn 0.528347 0.064684 0.846561
vn -0.067464 -0.112957 0.991307
vn 0.392837 -0.096865 0.914492
vn 0.436417 -0.104654 0.893637
vn 0.458638 -0.112609 0.881459
vn 0.475303 -0.098371 0.874306
vn 0.503876 -0.063238 0.861458
vn 0.579440 -0.024598 0.814644
vn -0.018314 -0.126198 0.991836
vn 0.394701 -0.146260 0.907094
vn 0.450967 -0.149199 0.879982
vn 0.459188 -0.146800 0.876126
vn 0.461233 -0.134815 0.876977
vn 0.493682 -0.111073 0.862520
vn 0.603170 -0.071881 0.794367
vn 0.082963 -0.157225 0.984072
vn 0.405960 -0.189175 0.894097
vn 0.449121 -0.190321 0.872965
vn 0.449594 -0.178825 0.875150
vn 0.449439 -0.162104 0.878480
vn 0.490069 -0.140363 0.860308
vn 0.618285 -0.102218 0.779279
vn 0.183096 -0.205747 0.961324
vn 0.413380 -0.233207 0.880188
vn 0.439467 -0.227934 0.868858
vn 0.436565 -0.215618 0.873453
vn 0.442497 -0.202846 0.873527
vn 0.499130 -0.185073 0.846533
vn 0.652478 -0.145667 0.743676
vn 0.250607 -0.262295 0.931878
vn 0.403679 -0.271283 0.873756
vn 0.422506 -0.253730 0.870121
vn 0.426372 -0.240041 0.872117
vn 0.445103 -0.235288 0.864016
vn 0.518905 -0.230155 0.823266
vn 0.695063 -0.198771 0.690925
vn 0.270170 -0.303110 0.913856
vn 0.378999 -0.295366 0.876994
vn 0.398101 -0.270068 0.876686
vn 0.417971 -0.252897 0.872550
vn 0.458163 -0.251956 0.852411
vn 0.550655 -0.259608 0.793337
vn 0.738947 -0.242393 0.628651
vn 0.254443 -0.315391 0.914214
vn 0.351527 -0.301659 0.886245
vn 0.368567 -0.276620 0.887491
vn 0.405761 -0.256275 0.877315
vn 0.476539 -0.252588 0.842087
vn 0.594798 -0.264505 0.759113
vn 0.784289 -0.258806 0.563836
vn 0.194437 -0.319317 0.927486
vn 0.334571 -0.307143 0.890913
vn 0.346759 -0.285198 0.893544
vn 0.382932 -0.261048 0.886125
vn 0.465887 -0.247170 0.849621
vn 0.592958 -0.250873 0.765156
vn 0.773684 -0.255495 0.579772
s 1
f 1//1 2//2 4//3 3//4
f 3//4 4//3 6//5 5//6
f 5//6 6//5 8//7 7//8
f 7//8 8//7 10//9 9//10
f 9//10 10//9 12//11 11//12
f 11//12 12//11 14//13 13//14
f 2//2 15//15 16//16 4//3
f 4//3 16//16 17//17 6//5
f 6//5 17//17 18//18 8//7
f 8//7 18//18 19//19 10//9
f 10//9 19//19 20//20 12//11
f 12//11 20//20 21//21 14//13
f 15//15 22//22 23//23 16//16
f 16//16 23//23 24//24 17//17
f 17//17 24//24 25//25 18//18
f 18//18 25//25 26//26 19//19
f 19//19 26//26 27//27 20//20
f 20//20 27//27 28//28 21//21
f 22//22 29//29 30//30 23//23
f 23//23 30//30 31//31 24//24
f 24//24 31//31 32//32 25//25
f 25//25 32//32 33//33 26//26
f 26//26 33//33 34//34 27//27
f 27//27 34//34 35//35 28//28
f 29//29 36//36 37//37 30//30
f 30//30 37//37 38//38 31//31
f 31//31 38//38 39//39 32//32
f 32//32 39//39 40//40 33//33
f 33//33 40//40 41//41 34//34
f 34//34 41//41 42//42 35//35
f 36//36 43//43 44//44 37//37
f 37//37 44//44 45//45 38//38
f 38//38 45//45 46//46 39//39
f 39//39 46//46 47//47 40//40
f 40//40 47//47 48//48 41//41
f 41//41 48//48 49//49 42//42
f 43//43 50//50 51//51 44//44
f 44//44 51//51 52//52 45//45
f 45//45 52//52 53//53 46//46
f 46//46 53//53 54//54 47//47
f 47//47 54//54 55//55 48//48
f 48//48 55//55 56//56 49//49
f 50//50 57//57 58//58 51//51
f 51//51 58//58 59//59 52//52
f 52//52 59//59 60//60 53//53
f 53//53 60//60 61//61 54//54
f 54//54 61//61 62//62 55//55
f 55//55 62//62 63//63 56//56
f 57//57 64//64 65//65 58//58
f 58//58 65//65 66//66 59//59
f 59//59 66//66 67//67 60//60
f 60//60 67//67 68//68 61//61
f 61//61 68//68 69//69 62//62
f 62//62 69//69 70//70 63//63
f 64//64 71//71 72//72 65//65
f 65//65 72//72 73//73 66//66
f 66//66 73//73 74//74 67//67
f 67//67 74//74 75//75 68//68
f 68//68 75//75 76//76 69//69
f 69//69 76//76 77//77 70//70
f 71//71 78//78 79//79 72//72
f 72//72 79//79 80//80 73//73
f 73//73 80//80 81//81 74//74
f 74//74 81//81 82//82 75//75
f 75//75 82//82 83//83 76//76
f 76//76 83//83 84//84 77//77
f 78//78 85//85 86//86 79//79
f 79//79 86//86 87//87 80//80
f 80//80 87//87 88//88 81//81
f 81//81 88//88 89//89 82//82
f 82//82 89//89 90//90 83//83
f 83//83 90//90 91//91 84//84
f 85//85 92//92 93//93 86//86
f 86//86 93//93 94//94 87//87
f 87//87 94//94 95//95 88//88
f 88//88 95//95 96//96 89//89
f 89//89 96//96 97//97 90//90
f 90//90 97//97 98//98 91//91
f 92//92 99//99 100//100 93//93
f 93//93 100//100 101//101 94//94
f 94//94 101//101 102//102 95//95
f 95//95 102//102 103//103 96//96
f 96//96 103//103 104//104 97//97
f 97//97 104//104 105//105 98//98
f 99//99 106//106 107//107 100//100
f 100//100 107//107 108//108 101//101
f 101//101 108//108 109//109 102//102
f 102//102 109//109 110//110 103//103
f 103//103 110//110 111//111 104//104
f 104//104 111//111 112//112 105//105
s 2
f 113//113 114//114 116//115 115//116
f 115//116 116//115 118//117 117//118
f 117//118 118//117 120//119 119//120
f 119//120 120//119 122//121 121//122
f 121//122 122//121 124//123 123//124
f 123//124 124//123 126//125 125//126
f 114//114 127//127 128//128 116//115
f 116//115 128//128 129//129 118//117
f 118//117 129//129 130//130 120//119
f 120//119 130//130 131//131 122//121
f 122//121 131//131 132//132 124//123
f 124//123 132//132 133//133 126//125
f 127//127 134//134 135//135 128//128
f 128//128 135//135 136//136 129//129
f 129//129 136//136 137//137 130//130
f 130//130 137//137 138//138 131//131
f 131//131 138//138 139//139 132//132
f 132//132 139//139 140//140 133//133
f 134//134 141//141 142//142 135//135
f 135//135 142//142 143//143 136//136
f 136//136 143//143 144//144 137//137
f 137//137 144//144 145//145 138//138
f 138//138 145//145 146//146 139//139
f 139//139 146//146 147//147 140//140
f 141//141 148//148 149//149 142//142
f 142//142 149//149 150//150 143//143
f 143//143 150//150 151//151 144//144
f 144//144 151//151 152//152 145//145
f 145//145 152//152 153//153 146//146
f 146//146 153//153 154//154 147//147
f 148//148 155//155 156//156 149//149
f 149//149 156//156 157//157 150//150
f 150//150 157//157 158//158 151//151
f 151//151 158//158 159//159 152//152
f 152//152 159//159 160//160 153//153
f 153//153 160//160 161//161 154//154
f 155//155 162//162 163//163 156//156
f 156//156 163//163 164//164 157//157
f 157//157 164//164 165//165 158//158
f 158//158 165//165 166//166 159//159
f 159//159 166//166 167//167 160//160
f 160//160 167//167 168//168 161//161
f 162//162 169//169 170//170 163//163
f 163//163 170//170 171//171 164//164
f 164//164 171//171 172//172 165//165
f 165//165 172//172 173//173 166//166
f 166//166 173//173 174//174 167//167
f 167//167 174//174 175//175 168//168
f 169//169 176//176 177//177 170//170
f 170//170 177//177 178//178 171//171
f 171//171 178//178 179//179 172//172
f 172//172 179//179 180//180 173//173
f 173//173 180//180 181//181 174//174
f 174//174 181//181 182//182 175//175
f 176//176 183//183 184//184 177//177
f 177//177 184//184 185//185 178//178
f 178//178 185//185 186//186 179//179
f 179//179 186//186 187//187 180//180
f 180//180 187//187 188//188 181//181
f 181//181 188//188 189//189 182//182
f 183//183 190//190 191//191 184//184
f 184//184 191//191 192//192 185//185
f 185//185 192//192 193//193 186//186
f 186//186 193//193 194//194 187//187
f 187//187 194//194 195//195 188//188
f 188//188 195//195 196//196 189//189
f 190//190 197//197 198//198 191//191
f 191//191 198//198 199//199 192//192
f 192//192 199//199 200//200 193//193
f 193//193 200//200 201//201 194//194
f 194//194 201//201 202//202 195//195
f 195//195 202//202 203//203 196//196
f 197//197 204//204 205//205 198//198
f 198//198 205//205 206//206 199//199
f 199//199 206//206 207//207 200//200
f 200//200 207//207 208//208 201//201
f 201//201 208//208 209//209 202//202
f 202//202 209//209 210//210 203//203
f 204//204 211//211 212//212 205//205
f 205//205 212//212 213//213 206//206
f 206//206 213//213 214//214 207//207
f 207//207 214//214 215//215 208//208
f 208//208 215//215 216//216 209//209
f 209//209 216//216 217//217 210//210
f 211//211 218//218 219//219 212//212
f 212//212 219//219 220//220 213//213
f 213//213 220//220 221//221 214//214
f 214//214 221//221 222//222 215//215
f 215//215 222//222 223//223 216//216
f 216//216 223//223 224//224 217//217
