# This file uses centimeters as units for non-parametric coordinates.

v 66.244148 1739.919067 -3.897662
v 66.993446 1740.126587 2.809100
v 64.028114 1739.484985 -8.695440
v 62.676968 1739.274780 -10.816306
v 60.052807 1740.915527 23.199415
v 61.742870 1740.713989 20.515316
v 62.293285 1740.654053 19.422758
v 64.440956 1740.434326 14.612572
v 65.632866 1740.341553 11.507446
v 66.775246 1740.241333 7.443624
v 64.448662 1724.576782 3.565130
v 63.833126 1725.000610 10.026648
v 63.690075 1724.147339 -1.403990
v 63.054577 1723.939941 -3.645507
v 54.294567 1727.367676 27.673874
v 56.171368 1726.837524 25.592157
v 56.964779 1726.617676 24.531197
v 59.665096 1725.942993 20.464743
v 61.210384 1725.615601 17.786312
v 62.889568 1725.294067 14.118689
v 62.673107 1710.099121 10.565811
v 60.946636 1710.645630 16.473372
v 63.059551 1709.591919 5.791399
v 63.020916 1709.357422 3.506485
v 49.193340 1713.948608 31.771021
v 51.352734 1713.204468 30.009277
v 52.143383 1712.951538 29.236891
v 55.336300 1711.976196 25.798805
v 57.210583 1711.523926 23.490089
v 59.343960 1711.058594 20.331898
v 61.040783 1696.048218 18.657091
v 58.136501 1696.762207 23.438774
v 62.588619 1695.430664 14.650160
v 63.064327 1695.182861 12.748859
v 45.607021 1699.822632 35.667473
v 47.772305 1699.118896 34.272476
v 48.542324 1698.902222 33.701397
v 51.824978 1698.046021 31.060186
v 53.724331 1697.659912 29.256500
v 55.963543 1697.226440 26.705896
v 60.544918 1739.266968 -13.309171
v 61.906658 1723.800293 -6.525468
v 62.845028 1709.169312 0.526312
v 63.550381 1695.046875 10.128786
v 66.423943 1756.433472 -11.977311
v 68.497887 1756.347778 -5.206189
v 63.296474 1756.349487 -16.551781
v 61.604977 1756.298096 -18.490297
v 59.221569 1756.265503 -21.017685
v 66.903160 1755.415161 14.060508
v 65.683937 1755.156982 17.265495
v 67.235100 1755.501587 12.875975
v 68.482918 1755.867554 7.498205
v 69.041420 1756.058594 4.085430
v 69.314751 1756.237671 -0.289945
vn 0.959542 -0.171962 -0.222955
vn 0.986827 -0.159229 -0.028605
vn 0.954622 -0.176834 -0.239638
vn 0.886341 -0.203938 -0.415703
vn 0.875920 -0.200302 -0.438912
vn 0.782229 -0.247350 -0.571783
vn 0.807227 -0.211028 -0.551228
vn 0.719122 -0.271407 -0.639689
vn 0.675915 -0.248374 -0.693866
vn 0.623019 -0.309409 -0.718410
vn 0.900429 -0.118107 0.418663
vn 0.804761 -0.109752 0.583364
vn 0.861919 -0.133645 0.489117
vn 0.940188 -0.149141 0.306272
vn 0.894197 -0.141630 0.424679
vn 0.958172 -0.156960 0.239313
vn 0.918722 -0.115379 0.377674
vn 0.973336 -0.128492 0.190021
vn 0.945615 -0.107311 0.307079
vn 0.986453 -0.120233 0.111603
vn 0.978632 -0.133587 0.156313
vn 0.988032 -0.146478 -0.048351
vn 0.978593 -0.119286 0.167711
vn 0.991617 -0.128394 -0.014500
vn 0.969736 -0.138007 -0.201410
vn 0.943230 -0.131980 -0.304791
vn 0.889694 -0.139739 -0.434646
vn 0.694546 -0.049662 0.717732
vn 0.765350 -0.074267 0.639315
vn 0.809507 -0.084609 0.580982
vn 0.845220 -0.067491 0.530140
vn 0.883983 -0.064877 0.462996
vn 0.939861 -0.093536 0.328500
vn 0.937515 -0.013574 0.347679
vn 0.980241 -0.010380 0.197533
vn 0.999064 -0.020354 0.038169
vn 0.999144 -0.015097 -0.038520
vn 0.984390 -0.046481 -0.169750
vn 0.604714 0.040388 0.795418
vn 0.672468 0.022741 0.739777
vn 0.719500 0.014067 0.694350
vn 0.761198 0.026124 0.647993
vn 0.808291 0.024254 0.588283
vn 0.878417 -0.000796 0.477895
vn 0.844804 0.108526 0.523955
vn 0.900129 0.113845 0.420485
vn 0.958578 0.078645 0.273756
vn 0.981359 0.049982 0.185571
vn 0.998013 -0.023153 0.058594
vn 0.517014 0.128764 0.846236
vn 0.575526 0.124675 0.808224
vn 0.620039 0.122048 0.775020
vn 0.667864 0.131742 0.732531
vn 0.724251 0.124717 0.678164
vn 0.787474 0.109529 0.606537
s 1
f 46//1 2//2 1//3 45//4
f 45//4 1//3 3//5 47//6
f 47//6 3//5 4//7 48//8
f 48//8 4//7 41//9 49//10
f 51//11 5//12 6//13 50//14
f 50//14 6//13 7//15 52//16
f 52//16 7//15 8//17 53//18
f 53//18 8//17 9//19 54//20
f 54//20 9//19 10//21 55//22
f 55//22 10//21 2//2 46//1
f 2//2 12//23 11//24 1//3
f 1//3 11//24 13//25 3//5
f 3//5 13//25 14//26 4//7
f 4//7 14//26 42//27 41//9
f 5//12 15//28 16//29 6//13
f 6//13 16//29 17//30 7//15
f 7//15 17//30 18//31 8//17
f 8//17 18//31 19//32 9//19
f 9//19 19//32 20//33 10//21
f 10//21 20//33 12//23 2//2
f 12//23 22//34 21//35 11//24
f 11//24 21//35 23//36 13//25
f 13//25 23//36 24//37 14//26
f 14//26 24//37 43//38 42//27
f 15//28 25//39 26//40 16//29
f 16//29 26//40 27//41 17//30
f 17//30 27//41 28//42 18//31
f 18//31 28//42 29//43 19//32
f 19//32 29//43 30//44 20//33
f 20//33 30//44 22//34 12//23
f 22//34 32//45 31//46 21//35
f 21//35 31//46 33//47 23//36
f 23//36 33//47 34//48 24//37
f 24//37 34//48 44//49 43//38
f 25//39 35//50 36//51 26//40
f 26//40 36//51 37//52 27//41
f 27//41 37//52 38//53 28//42
f 28//42 38//53 39//54 29//43
f 29//43 39//54 40//55 30//44
f 30//44 40//55 32//45 22//34
v 66.244148 1739.919067 -3.897662
v 66.993446 1740.126587 2.809100
v 64.028114 1739.484985 -8.695440
v 62.676968 1739.274780 -10.816306
v 60.052807 1740.915527 23.199415
v 61.742870 1740.713989 20.515316
v 62.293285 1740.654053 19.422758
v 64.440956 1740.434326 14.612572
v 65.632866 1740.341553 11.507446
v 66.775246 1740.241333 7.443624
v 64.448662 1724.576782 3.565130
v 63.833126 1725.000610 10.026648
v 63.690075 1724.147339 -1.403990
v 63.054577 1723.939941 -3.645507
v 54.294567 1727.367676 27.673874
v 56.171368 1726.837524 25.592157
v 56.964779 1726.617676 24.531197
v 59.665096 1725.942993 20.464743
v 61.210384 1725.615601 17.786312
v 62.889568 1725.294067 14.118689
v 62.673107 1710.099121 10.565811
v 60.946636 1710.645630 16.473372
v 63.059551 1709.591919 5.791399
v 63.020916 1709.357422 3.506485
v 49.193340 1713.948608 31.771021
v 51.352734 1713.204468 30.009277
v 52.143383 1712.951538 29.236891
v 55.336300 1711.976196 25.798805
v 57.210583 1711.523926 23.490089
v 59.343960 1711.058594 20.331898
v 61.040783 1696.048218 18.657091
v 58.136501 1696.762207 23.438774
v 62.588619 1695.430664 14.650160
v 63.064327 1695.182861 12.748859
v 45.607021 1699.822632 35.667473
v 47.772305 1699.118896 34.272476
v 48.542324 1698.902222 33.701397
v 51.824978 1698.046021 31.060186
v 53.724331 1697.659912 29.256500
v 55.963543 1697.226440 26.705896
v 60.544918 1739.266968 -13.309171
v 61.906658 1723.800293 -6.525468
v 62.845028 1709.169312 0.526312
v 63.550381 1695.046875 10.128786
v 66.423943 1756.433472 -11.977311
v 68.497887 1756.347778 -5.206189
v 63.296474 1756.349487 -16.551781
v 61.604977 1756.298096 -18.490297
v 59.221569 1756.265503 -21.017685
v 66.903160 1755.415161 14.060508
v 65.683937 1755.156982 17.265495
v 67.235100 1755.501587 12.875975
v 68.482918 1755.867554 7.498205
v 69.041420 1756.058594 4.085430
v 69.314751 1756.237671 -0.289945
vn 0.959542 -0.171962 -0.222955
vn 0.986827 -0.159229 -0.028605
vn 0.954622 -0.176834 -0.239638
vn 0.886341 -0.203938 -0.415703
vn 0.875920 -0.200302 -0.438912
vn 0.782229 -0.247350 -0.571783
vn 0.807227 -0.211028 -0.551228
vn 0.719122 -0.271407 -0.639689
vn 0.675915 -0.248374 -0.693866
vn 0.623019 -0.309409 -0.718410
vn 0.900429 -0.118107 0.418663
vn 0.804761 -0.109752 0.583364
vn 0.861919 -0.133645 0.489117
vn 0.940188 -0.149141 0.306272
vn 0.894197 -0.141630 0.424679
vn 0.958172 -0.156960 0.239313
vn 0.918722 -0.115379 0.377674
vn 0.973336 -0.128492 0.190021
vn 0.945615 -0.107311 0.307079
vn 0.986453 -0.120233 0.111603
vn 0.978632 -0.133587 0.156313
vn 0.988032 -0.146478 -0.048351
vn 0.978593 -0.119286 0.167711
vn 0.991617 -0.128394 -0.014500
vn 0.969736 -0.138007 -0.201410
vn 0.943230 -0.131980 -0.304791
vn 0.889694 -0.139739 -0.434646
vn 0.694546 -0.049662 0.717732
vn 0.765350 -0.074267 0.639315
vn 0.809507 -0.084609 0.580982
vn 0.845220 -0.067491 0.530140
vn 0.883983 -0.064877 0.462996
vn 0.939861 -0.093536 0.328500
vn 0.937515 -0.013574 0.347679
vn 0.980241 -0.010380 0.197533
vn 0.999064 -0.020354 0.038169
vn 0.999144 -0.015097 -0.038520
vn 0.984390 -0.046481 -0.169750
vn 0.604714 0.040388 0.795418
vn 0.672468 0.022741 0.739777
vn 0.719500 0.014067 0.694350
vn 0.761198 0.026124 0.647993
vn 0.808291 0.024254 0.588283
vn 0.878417 -0.000796 0.477895
vn 0.844804 0.108526 0.523955
vn 0.900129 0.113845 0.420485
vn 0.958578 0.078645 0.273756
vn 0.981359 0.049982 0.185571
vn 0.998013 -0.023153 0.058594
vn 0.517014 0.128764 0.846236
vn 0.575526 0.124675 0.808224
vn 0.620039 0.122048 0.775020
vn 0.667864 0.131742 0.732531
vn 0.724251 0.124717 0.678164
vn 0.787474 0.109529 0.606537
s 1
f 101//56 57//57 56//58 100//59
f 100//59 56//58 58//60 102//61
f 102//61 58//60 59//62 103//63
f 103//63 59//62 96//64 104//65
f 106//66 60//67 61//68 105//69
f 105//69 61//68 62//70 107//71
f 107//71 62//70 63//72 108//73
f 108//73 63//72 64//74 109//75
f 109//75 64//74 65//76 110//77
f 110//77 65//76 57//57 101//56
f 57//57 67//78 66//79 56//58
f 56//58 66//79 68//80 58//60
f 58//60 68//80 69//81 59//62
f 59//62 69//81 97//82 96//64
f 60//67 70//83 71//84 61//68
f 61//68 71//84 72//85 62//70
f 62//70 72//85 73//86 63//72
f 63//72 73//86 74//87 64//74
f 64//74 74//87 75//88 65//76
f 65//76 75//88 67//78 57//57
f 67//78 77//89 76//90 66//79
f 66//79 76//90 78//91 68//80
f 68//80 78//91 79//92 69//81
f 69//81 79//92 98//93 97//82
f 70//83 80//94 81//95 71//84
f 71//84 81//95 82//96 72//85
f 72//85 82//96 83//97 73//86
f 73//86 83//97 84//98 74//87
f 74//87 84//98 85//99 75//88
f 75//88 85//99 77//89 67//78
f 77//89 87//100 86//101 76//90
f 76//90 86//101 88//102 78//91
f 78//91 88//102 89//103 79//92
f 79//92 89//103 99//104 98//93
f 80//94 90//105 91//106 81//95
f 81//95 91//106 92//107 82//96
f 82//96 92//107 93//108 83//97
f 83//97 93//108 94//109 84//98
f 84//98 94//109 95//110 85//99
f 85//99 95//110 87//100 77//89
v 66.244148 1739.919067 -3.897662
v 66.993446 1740.126587 2.809100
v 64.028114 1739.484985 -8.695440
v 62.676968 1739.274780 -10.816306
v 60.052807 1740.915527 23.199415
v 61.742870 1740.713989 20.515316
v 62.293285 1740.654053 19.422758
v 64.440956 1740.434326 14.612572
v 65.632866 1740.341553 11.507446
v 66.775246 1740.241333 7.443624
v 64.448662 1724.576782 3.565130
v 63.833126 1725.000610 10.026648
v 63.690075 1724.147339 -1.403990
v 63.054577 1723.939941 -3.645507
v 54.294567 1727.367676 27.673874
v 56.171368 1726.837524 25.592157
v 56.964779 1726.617676 24.531197
v 59.665096 1725.942993 20.464743
v 61.210384 1725.615601 17.786312
v 62.889568 1725.294067 14.118689
v 62.673107 1710.099121 10.565811
v 60.946636 1710.645630 16.473372
v 63.059551 1709.591919 5.791399
v 63.020916 1709.357422 3.506485
v 49.193340 1713.948608 31.771021
v 51.352734 1713.204468 30.009277
v 52.143383 1712.951538 29.236891
v 55.336300 1711.976196 25.798805
v 57.210583 1711.523926 23.490089
v 59.343960 1711.058594 20.331898
v 61.040783 1696.048218 18.657091
v 58.136501 1696.762207 23.438774
v 62.588619 1695.430664 14.650160
v 63.064327 1695.182861 12.748859
v 45.607021 1699.822632 35.667473
v 47.772305 1699.118896 34.272476
v 48.542324 1698.902222 33.701397
v 51.824978 1698.046021 31.060186
v 53.724331 1697.659912 29.256500
v 55.963543 1697.226440 26.705896
v 60.544918 1739.266968 -13.309171
v 61.906658 1723.800293 -6.525468
v 62.845028 1709.169312 0.526312
v 63.550381 1695.046875 10.128786
v 66.423943 1756.433472 -11.977311
v 68.497887 1756.347778 -5.206189
v 63.296474 1756.349487 -16.551781
v 61.604977 1756.298096 -18.490297
v 59.221569 1756.265503 -21.017685
v 66.903160 1755.415161 14.060508
v 65.683937 1755.156982 17.265495
v 67.235100 1755.501587 12.875975
v 68.482918 1755.867554 7.498205
v 69.041420 1756.058594 4.085430
v 69.314751 1756.237671 -0.289945
vn 0.959542 -0.171962 -0.222955
vn 0.986827 -0.159229 -0.028605
vn 0.954622 -0.176834 -0.239638
vn 0.886341 -0.203938 -0.415703
vn 0.875920 -0.200302 -0.438912
vn 0.782229 -0.247350 -0.571783
vn 0.807227 -0.211028 -0.551228
vn 0.719122 -0.271407 -0.639689
vn 0.675915 -0.248374 -0.693866
vn 0.623019 -0.309409 -0.718410
vn 0.900429 -0.118107 0.418663
vn 0.804761 -0.109752 0.583364
vn 0.861919 -0.133645 0.489117
vn 0.940188 -0.149141 0.306272
vn 0.894197 -0.141630 0.424679
vn 0.958172 -0.156960 0.239313
vn 0.918722 -0.115379 0.377674
vn 0.973336 -0.128492 0.190021
vn 0.945615 -0.107311 0.307079
vn 0.986453 -0.120233 0.111603
vn 0.978632 -0.133587 0.156313
vn 0.988032 -0.146478 -0.048351
vn 0.978593 -0.119286 0.167711
vn 0.991617 -0.128394 -0.014500
vn 0.969736 -0.138007 -0.201410
vn 0.943230 -0.131980 -0.304791
vn 0.889694 -0.139739 -0.434646
vn 0.694546 -0.049662 0.717732
vn 0.765350 -0.074267 0.639315
vn 0.809507 -0.084609 0.580982
vn 0.845220 -0.067491 0.530140
vn 0.883983 -0.064877 0.462996
vn 0.939861 -0.093536 0.328500
vn 0.937515 -0.013574 0.347679
vn 0.980241 -0.010380 0.197533
vn 0.999064 -0.020354 0.038169
vn 0.999144 -0.015097 -0.038520
vn 0.984390 -0.046481 -0.169750
vn 0.604714 0.040388 0.795418
vn 0.672468 0.022741 0.739777
vn 0.719500 0.014067 0.694350
vn 0.761198 0.026124 0.647993
vn 0.808291 0.024254 0.588283
vn 0.878417 -0.000796 0.477895
vn 0.844804 0.108526 0.523955
vn 0.900129 0.113845 0.420485
vn 0.958578 0.078645 0.273756
vn 0.981359 0.049982 0.185571
vn 0.998013 -0.023153 0.058594
vn 0.517014 0.128764 0.846236
vn 0.575526 0.124675 0.808224
vn 0.620039 0.122048 0.775020
vn 0.667864 0.131742 0.732531
vn 0.724251 0.124717 0.678164
vn 0.787474 0.109529 0.606537
s 1
f 156//111 112//112 111//113 155//114
f 155//114 111//113 113//115 157//116
f 157//116 113//115 114//117 158//118
f 158//118 114//117 151//119 159//120
f 161//121 115//122 116//123 160//124
f 160//124 116//123 117//125 162//126
f 162//126 117//125 118//127 163//128
f 163//128 118//127 119//129 164//130
f 164//130 119//129 120//131 165//132
f 165//132 120//131 112//112 156//111
f 112//112 122//133 121//134 111//113
f 111//113 121//134 123//135 113//115
f 113//115 123//135 124//136 114//117
f 114//117 124//136 152//137 151//119
f 115//122 125//138 126//139 116//123
f 116//123 126//139 127//140 117//125
f 117//125 127//140 128//141 118//127
f 118//127 128//141 129//142 119//129
f 119//129 129//142 130//143 120//131
f 120//131 130//143 122//133 112//112
f 122//133 132//144 131//145 121//134
f 121//134 131//145 133//146 123//135
f 123//135 133//146 134//147 124//136
f 124//136 134//147 153//148 152//137
f 125//138 135//149 136//150 126//139
f 126//139 136//150 137//151 127//140
f 127//140 137//151 138//152 128//141
f 128//141 138//152 139//153 129//142
f 129//142 139//153 140//154 130//143
f 130//143 140//154 132//144 122//133
f 132//144 142//155 141//156 131//145
f 131//145 141//156 143//157 133//146
f 133//146 143//157 144//158 134//147
f 134//147 144//158 154//159 153//148
f 135//149 145//160 146//161 136//150
f 136//150 146//161 147//162 137//151
f 137//151 147//162 148//163 138//152
f 138//152 148//163 149//164 139//153
f 139//153 149//164 150//165 140//154
f 140//154 150//165 142//155 132//144
