# This file uses centimeters as units for non-parametric coordinates.

v 68.498009 1800.360596 -27.898035
v 63.337261 1801.656006 -34.697502
v 66.118538 1789.462280 -27.916285
v 70.223793 1788.640625 -20.859058
v 60.434399 1802.116455 -39.395969
v 62.655087 1789.786743 -32.993797
v 58.781551 1802.196899 -41.991455
v 60.857143 1789.856201 -35.409203
v 73.160667 1793.778320 -4.139745
v 72.754509 1782.806763 2.855353
v 73.387611 1795.196533 -7.370195
v 73.436302 1783.966797 -0.421149
v 73.273567 1795.772583 -8.682667
v 73.565041 1784.489136 -2.036906
v 72.455498 1797.890259 -14.496822
v 73.561195 1786.160034 -7.751194
v 71.796242 1798.990601 -18.105021
v 73.237862 1787.070557 -11.376560
v 70.476051 1799.939331 -23.138876
v 72.196739 1788.005737 -16.192366
v 66.119499 1773.468872 -20.606323
v 69.196892 1773.055054 -13.704525
v 62.672359 1773.524292 -25.424038
v 60.851086 1773.523438 -27.479990
v 70.010002 1769.639038 10.278666
v 70.801918 1770.379883 6.769550
v 70.958702 1770.623535 5.470469
v 71.350594 1771.630493 -0.351852
v 71.333626 1772.150391 -4.003569
v 70.838173 1772.668823 -8.642350
v 66.423943 1756.433472 -11.977311
v 68.497887 1756.347778 -5.206189
v 63.296474 1756.349487 -16.551781
v 61.604977 1756.298096 -18.490297
v 65.683937 1755.156982 17.265495
v 66.903160 1755.415161 14.060508
v 67.235100 1755.501587 12.875975
v 68.482918 1755.867554 7.498205
v 69.041420 1756.058594 4.085430
v 69.314751 1756.237671 -0.289945
v 58.402462 1789.851807 -38.242634
v 56.504650 1801.801636 -44.939693
v 58.161144 1773.600220 -29.967621
v 59.221569 1756.265503 -21.017685
v 68.498009 1800.360596 -27.898035
v 63.337261 1801.656006 -34.697502
v 66.118538 1789.462280 -27.916285
v 70.223793 1788.640625 -20.859058
v 60.434399 1802.116455 -39.395969
v 62.655087 1789.786743 -32.993797
v 58.781551 1802.196899 -41.991455
v 60.857143 1789.856201 -35.409203
v 73.160667 1793.778320 -4.139745
v 72.754509 1782.806763 2.855353
v 73.387611 1795.196533 -7.370195
v 73.436302 1783.966797 -0.421149
v 73.273567 1795.772583 -8.682667
v 73.565041 1784.489136 -2.036906
v 72.455498 1797.890259 -14.496822
v 73.561195 1786.160034 -7.751194
v 71.796242 1798.990601 -18.105021
v 73.237862 1787.070557 -11.376560
v 70.476051 1799.939331 -23.138876
v 72.196739 1788.005737 -16.192366
v 66.119499 1773.468872 -20.606323
v 69.196892 1773.055054 -13.704525
v 62.672359 1773.524292 -25.424038
v 60.851086 1773.523438 -27.479990
v 70.010002 1769.639038 10.278666
v 70.801918 1770.379883 6.769550
v 70.958702 1770.623535 5.470469
v 71.350594 1771.630493 -0.351852
v 71.333626 1772.150391 -4.003569
v 70.838173 1772.668823 -8.642350
v 66.423943 1756.433472 -11.977311
v 68.497887 1756.347778 -5.206189
v 63.296474 1756.349487 -16.551781
v 61.604977 1756.298096 -18.490297
v 65.683937 1755.156982 17.265495
v 66.903160 1755.415161 14.060508
v 67.235100 1755.501587 12.875975
v 68.482918 1755.867554 7.498205
v 69.041420 1756.058594 4.085430
v 69.314751 1756.237671 -0.289945
v 58.402462 1789.851807 -38.242634
v 56.504650 1801.801636 -44.939693
v 58.161144 1773.600220 -29.967621
v 59.221569 1756.265503 -21.017685
vn 0.831153 -0.160208 -0.532464
vn 0.871673 -0.197510 -0.448527
vn 0.815099 -0.211048 -0.539511
vn 0.819489 -0.143723 -0.554780
vn 0.788822 -0.209216 -0.577918
vn 0.820638 -0.145033 -0.552737
vn 0.750189 -0.246800 -0.613438
vn 0.787909 -0.187979 -0.586398
vn 0.687036 -0.298255 -0.662590
vn 0.749339 -0.232837 -0.619902
vn 0.963303 0.127954 0.235956
vn 0.943631 0.076328 0.322080
vn 0.992158 -0.027836 0.121855
vn 0.998926 0.032770 0.032743
vn 0.997133 -0.075624 0.002663
vn 0.997127 0.004495 -0.075615
vn 0.994902 -0.072766 -0.069823
vn 0.991367 0.029336 -0.127793
vn 0.983027 -0.085844 -0.162137
vn 0.976922 0.003596 -0.213564
vn 0.941916 -0.133947 -0.307980
vn 0.934480 -0.069929 -0.349081
vn 0.908014 -0.217672 -0.357953
vn 0.830870 -0.242416 -0.500889
vn 0.752952 -0.278248 -0.596357
vn 0.695002 -0.307879 -0.649756
vn 0.598982 -0.350119 -0.720164
vn 0.946308 -0.066410 0.316370
vn 0.976771 -0.137076 0.164706
vn 0.983314 -0.162714 0.081344
vn 0.987867 -0.153891 0.020892
vn 0.985006 -0.160506 -0.063251
vn 0.957205 -0.193066 -0.215603
vn 0.959542 -0.171962 -0.222955
vn 0.886341 -0.203938 -0.415703
vn 0.782229 -0.247350 -0.571783
vn 0.719122 -0.271407 -0.639689
vn 0.623019 -0.309409 -0.718410
vn 0.900429 -0.118107 0.418663
vn 0.940188 -0.149141 0.306272
vn 0.958172 -0.156960 0.239313
vn 0.973336 -0.128492 0.190021
vn 0.986453 -0.120233 0.111603
vn 0.988032 -0.146478 -0.048351
vn 0.831153 -0.160208 -0.532464
vn 0.871673 -0.197510 -0.448527
vn 0.815099 -0.211048 -0.539511
vn 0.819489 -0.143723 -0.554780
vn 0.788822 -0.209216 -0.577918
vn 0.820638 -0.145033 -0.552737
vn 0.750189 -0.246800 -0.613438
vn 0.787909 -0.187979 -0.586398
vn 0.687036 -0.298255 -0.662590
vn 0.749339 -0.232837 -0.619902
vn 0.963303 0.127954 0.235956
vn 0.943631 0.076328 0.322080
vn 0.992158 -0.027836 0.121855
vn 0.998926 0.032770 0.032743
vn 0.997133 -0.075624 0.002663
vn 0.997127 0.004495 -0.075615
vn 0.994902 -0.072766 -0.069823
vn 0.991367 0.029336 -0.127793
vn 0.983027 -0.085844 -0.162137
vn 0.976922 0.003596 -0.213564
vn 0.941916 -0.133947 -0.307980
vn 0.934480 -0.069929 -0.349081
vn 0.908014 -0.217672 -0.357953
vn 0.830870 -0.242416 -0.500889
vn 0.752952 -0.278248 -0.596357
vn 0.695002 -0.307879 -0.649756
vn 0.598982 -0.350119 -0.720164
vn 0.946308 -0.066410 0.316370
vn 0.976771 -0.137076 0.164706
vn 0.983314 -0.162714 0.081344
vn 0.987867 -0.153891 0.020892
vn 0.985006 -0.160506 -0.063251
vn 0.957205 -0.193066 -0.215603
vn 0.959542 -0.171962 -0.222955
vn 0.886341 -0.203938 -0.415703
vn 0.782229 -0.247350 -0.571783
vn 0.719122 -0.271407 -0.639689
vn 0.623019 -0.309409 -0.718410
vn 0.900429 -0.118107 0.418663
vn 0.940188 -0.149141 0.306272
vn 0.958172 -0.156960 0.239313
vn 0.973336 -0.128492 0.190021
vn 0.986453 -0.120233 0.111603
vn 0.988032 -0.146478 -0.048351
s 1
f 1//1 4//2 3//3 2//4
f 2//4 3//3 6//5 5//6
f 5//6 6//5 8//7 7//8
f 7//8 8//7 41//9 42//10
f 9//11 10//12 12//13 11//14
f 11//14 12//13 14//15 13//16
f 13//16 14//15 16//17 15//18
f 15//18 16//17 18//19 17//20
f 17//20 18//19 20//21 19//22
f 19//22 20//21 4//2 1//1
f 4//2 22//23 21//24 3//3
f 3//3 21//24 23//25 6//5
f 6//5 23//25 24//26 8//7
f 8//7 24//26 43//27 41//9
f 10//12 25//28 26//29 12//13
f 12//13 26//29 27//30 14//15
f 14//15 27//30 28//31 16//17
f 16//17 28//31 29//32 18//19
f 18//19 29//32 30//33 20//21
f 20//21 30//33 22//23 4//2
f 22//23 32//34 31//35 21//24
f 21//24 31//35 33//36 23//25
f 23//25 33//36 34//37 24//26
f 24//26 34//37 44//38 43//27
f 25//28 35//39 36//40 26//29
f 26//29 36//40 37//41 27//30
f 27//30 37//41 38//42 28//31
f 28//31 38//42 39//43 29//32
f 29//32 39//43 40//44 30//33
f 30//33 40//44 32//34 22//23
s 3
f 45//45 48//46 47//47 46//48
f 46//48 47//47 50//49 49//50
f 49//50 50//49 52//51 51//52
f 51//52 52//51 85//53 86//54
f 53//55 54//56 56//57 55//58
f 55//58 56//57 58//59 57//60
f 57//60 58//59 60//61 59//62
f 59//62 60//61 62//63 61//64
f 61//64 62//63 64//65 63//66
f 63//66 64//65 48//46 45//45
f 48//46 66//67 65//68 47//47
f 47//47 65//68 67//69 50//49
f 50//49 67//69 68//70 52//51
f 52//51 68//70 87//71 85//53
f 54//56 69//72 70//73 56//57
f 56//57 70//73 71//74 58//59
f 58//59 71//74 72//75 60//61
f 60//61 72//75 73//76 62//63
f 62//63 73//76 74//77 64//65
f 64//65 74//77 66//67 48//46
f 66//67 76//78 75//79 65//68
f 65//68 75//79 77//80 67//69
f 67//69 77//80 78//81 68//70
f 68//70 78//81 88//82 87//71
f 69//72 79//83 80//84 70//73
f 70//73 80//84 81//85 71//74
f 71//74 81//85 82//86 72//75
f 72//75 82//86 83//87 73//76
f 73//76 83//87 84//88 74//77
f 74//77 84//88 76//78 66//67
v 68.498009 1800.360596 -27.898035
v 63.337261 1801.656006 -34.697502
v 66.118538 1789.462280 -27.916285
v 70.223793 1788.640625 -20.859058
v 60.434399 1802.116455 -39.395969
v 62.655087 1789.786743 -32.993797
v 58.781551 1802.196899 -41.991455
v 60.857143 1789.856201 -35.409203
v 73.160667 1793.778320 -4.139745
v 72.754509 1782.806763 2.855353
v 73.387611 1795.196533 -7.370195
v 73.436302 1783.966797 -0.421149
v 73.273567 1795.772583 -8.682667
v 73.565041 1784.489136 -2.036906
v 72.455498 1797.890259 -14.496822
v 73.561195 1786.160034 -7.751194
v 71.796242 1798.990601 -18.105021
v 73.237862 1787.070557 -11.376560
v 70.476051 1799.939331 -23.138876
v 72.196739 1788.005737 -16.192366
v 66.119499 1773.468872 -20.606323
v 69.196892 1773.055054 -13.704525
v 62.672359 1773.524292 -25.424038
v 60.851086 1773.523438 -27.479990
v 70.010002 1769.639038 10.278666
v 70.801918 1770.379883 6.769550
v 70.958702 1770.623535 5.470469
v 71.350594 1771.630493 -0.351852
v 71.333626 1772.150391 -4.003569
v 70.838173 1772.668823 -8.642350
v 66.423943 1756.433472 -11.977311
v 68.497887 1756.347778 -5.206189
v 63.296474 1756.349487 -16.551781
v 61.604977 1756.298096 -18.490297
v 65.683937 1755.156982 17.265495
v 66.903160 1755.415161 14.060508
v 67.235100 1755.501587 12.875975
v 68.482918 1755.867554 7.498205
v 69.041420 1756.058594 4.085430
v 69.314751 1756.237671 -0.289945
v 58.402462 1789.851807 -38.242634
v 56.504650 1801.801636 -44.939693
v 58.161144 1773.600220 -29.967621
v 59.221569 1756.265503 -21.017685
v 68.498009 1800.360596 -27.898035
v 63.337261 1801.656006 -34.697502
v 66.118538 1789.462280 -27.916285
v 70.223793 1788.640625 -20.859058
v 60.434399 1802.116455 -39.395969
v 62.655087 1789.786743 -32.993797
v 58.781551 1802.196899 -41.991455
v 60.857143 1789.856201 -35.409203
v 73.160667 1793.778320 -4.139745
v 72.754509 1782.806763 2.855353
v 73.387611 1795.196533 -7.370195
v 73.436302 1783.966797 -0.421149
v 73.273567 1795.772583 -8.682667
v 73.565041 1784.489136 -2.036906
v 72.455498 1797.890259 -14.496822
v 73.561195 1786.160034 -7.751194
v 71.796242 1798.990601 -18.105021
v 73.237862 1787.070557 -11.376560
v 70.476051 1799.939331 -23.138876
v 72.196739 1788.005737 -16.192366
v 66.119499 1773.468872 -20.606323
v 69.196892 1773.055054 -13.704525
v 62.672359 1773.524292 -25.424038
v 60.851086 1773.523438 -27.479990
v 70.010002 1769.639038 10.278666
v 70.801918 1770.379883 6.769550
v 70.958702 1770.623535 5.470469
v 71.350594 1771.630493 -0.351852
v 71.333626 1772.150391 -4.003569
v 70.838173 1772.668823 -8.642350
v 66.423943 1756.433472 -11.977311
v 68.497887 1756.347778 -5.206189
v 63.296474 1756.349487 -16.551781
v 61.604977 1756.298096 -18.490297
v 65.683937 1755.156982 17.265495
v 66.903160 1755.415161 14.060508
v 67.235100 1755.501587 12.875975
v 68.482918 1755.867554 7.498205
v 69.041420 1756.058594 4.085430
v 69.314751 1756.237671 -0.289945
v 58.402462 1789.851807 -38.242634
v 56.504650 1801.801636 -44.939693
v 58.161144 1773.600220 -29.967621
v 59.221569 1756.265503 -21.017685
vn 0.831153 -0.160208 -0.532464
vn 0.871673 -0.197510 -0.448527
vn 0.815099 -0.211048 -0.539511
vn 0.819489 -0.143723 -0.554780
vn 0.788822 -0.209216 -0.577918
vn 0.820638 -0.145033 -0.552737
vn 0.750189 -0.246800 -0.613438
vn 0.787909 -0.187979 -0.586398
vn 0.687036 -0.298255 -0.662590
vn 0.749339 -0.232837 -0.619902
vn 0.963303 0.127954 0.235956
vn 0.943631 0.076328 0.322080
vn 0.992158 -0.027836 0.121855
vn 0.998926 0.032770 0.032743
vn 0.997133 -0.075624 0.002663
vn 0.997127 0.004495 -0.075615
vn 0.994902 -0.072766 -0.069823
vn 0.991367 0.029336 -0.127793
vn 0.983027 -0.085844 -0.162137
vn 0.976922 0.003596 -0.213564
vn 0.941916 -0.133947 -0.307980
vn 0.934480 -0.069929 -0.349081
vn 0.908014 -0.217672 -0.357953
vn 0.830870 -0.242416 -0.500889
vn 0.752952 -0.278248 -0.596357
vn 0.695002 -0.307879 -0.649756
vn 0.598982 -0.350119 -0.720164
vn 0.946308 -0.066410 0.316370
vn 0.976771 -0.137076 0.164706
vn 0.983314 -0.162714 0.081344
vn 0.987867 -0.153891 0.020892
vn 0.985006 -0.160506 -0.063251
vn 0.957205 -0.193066 -0.215603
vn 0.959542 -0.171962 -0.222955
vn 0.886341 -0.203938 -0.415703
vn 0.782229 -0.247350 -0.571783
vn 0.719122 -0.271407 -0.639689
vn 0.623019 -0.309409 -0.718410
vn 0.900429 -0.118107 0.418663
vn 0.940188 -0.149141 0.306272
vn 0.958172 -0.156960 0.239313
vn 0.973336 -0.128492 0.190021
vn 0.986453 -0.120233 0.111603
vn 0.988032 -0.146478 -0.048351
vn 0.831153 -0.160208 -0.532464
vn 0.871673 -0.197510 -0.448527
vn 0.815099 -0.211048 -0.539511
vn 0.819489 -0.143723 -0.554780
vn 0.788822 -0.209216 -0.577918
vn 0.820638 -0.145033 -0.552737
vn 0.750189 -0.246800 -0.613438
vn 0.787909 -0.187979 -0.586398
vn 0.687036 -0.298255 -0.662590
vn 0.749339 -0.232837 -0.619902
vn 0.963303 0.127954 0.235956
vn 0.943631 0.076328 0.322080
vn 0.992158 -0.027836 0.121855
vn 0.998926 0.032770 0.032743
vn 0.997133 -0.075624 0.002663
vn 0.997127 0.004495 -0.075615
vn 0.994902 -0.072766 -0.069823
vn 0.991367 0.029336 -0.127793
vn 0.983027 -0.085844 -0.162137
vn 0.976922 0.003596 -0.213564
vn 0.941916 -0.133947 -0.307980
vn 0.934480 -0.069929 -0.349081
vn 0.908014 -0.217672 -0.357953
vn 0.830870 -0.242416 -0.500889
vn 0.752952 -0.278248 -0.596357
vn 0.695002 -0.307879 -0.649756
vn 0.598982 -0.350119 -0.720164
vn 0.946308 -0.066410 0.316370
vn 0.976771 -0.137076 0.164706
vn 0.983314 -0.162714 0.081344
vn 0.987867 -0.153891 0.020892
vn 0.985006 -0.160506 -0.063251
vn 0.957205 -0.193066 -0.215603
vn 0.959542 -0.171962 -0.222955
vn 0.886341 -0.203938 -0.415703
vn 0.782229 -0.247350 -0.571783
vn 0.719122 -0.271407 -0.639689
vn 0.623019 -0.309409 -0.718410
vn 0.900429 -0.118107 0.418663
vn 0.940188 -0.149141 0.306272
vn 0.958172 -0.156960 0.239313
vn 0.973336 -0.128492 0.190021
vn 0.986453 -0.120233 0.111603
vn 0.988032 -0.146478 -0.048351
s 1
f 89//89 92//90 91//91 90//92
f 90//92 91//91 94//93 93//94
f 93//94 94//93 96//95 95//96
f 95//96 96//95 129//97 130//98
f 97//99 98//100 100//101 99//102
f 99//102 100//101 102//103 101//104
f 101//104 102//103 104//105 103//106
f 103//106 104//105 106//107 105//108
f 105//108 106//107 108//109 107//110
f 107//110 108//109 92//90 89//89
f 92//90 110//111 109//112 91//91
f 91//91 109//112 111//113 94//93
f 94//93 111//113 112//114 96//95
f 96//95 112//114 131//115 129//97
f 98//100 113//116 114//117 100//101
f 100//101 114//117 115//118 102//103
f 102//103 115//118 116//119 104//105
f 104//105 116//119 117//120 106//107
f 106//107 117//120 118//121 108//109
f 108//109 118//121 110//111 92//90
f 110//111 120//122 119//123 109//112
f 109//112 119//123 121//124 111//113
f 111//113 121//124 122//125 112//114
f 112//114 122//125 132//126 131//115
f 113//116 123//127 124//128 114//117
f 114//117 124//128 125//129 115//118
f 115//118 125//129 126//130 116//119
f 116//119 126//130 127//131 117//120
f 117//120 127//131 128//132 118//121
f 118//121 128//132 120//122 110//111
s 3
f 133//133 136//134 135//135 134//136
f 134//136 135//135 138//137 137//138
f 137//138 138//137 140//139 139//140
f 139//140 140//139 173//141 174//142
f 141//143 142//144 144//145 143//146
f 143//146 144//145 146//147 145//148
f 145//148 146//147 148//149 147//150
f 147//150 148//149 150//151 149//152
f 149//152 150//151 152//153 151//154
f 151//154 152//153 136//134 133//133
f 136//134 154//155 153//156 135//135
f 135//135 153//156 155//157 138//137
f 138//137 155//157 156//158 140//139
f 140//139 156//158 175//159 173//141
f 142//144 157//160 158//161 144//145
f 144//145 158//161 159//162 146//147
f 146//147 159//162 160//163 148//149
f 148//149 160//163 161//164 150//151
f 150//151 161//164 162//165 152//153
f 152//153 162//165 154//155 136//134
f 154//155 164//166 163//167 153//156
f 153//156 163//167 165//168 155//157
f 155//157 165//168 166//169 156//158
f 156//158 166//169 176//170 175//159
f 157//160 167//171 168//172 158//161
f 158//161 168//172 169//173 159//162
f 159//162 169//173 170//174 160//163
f 160//163 170//174 171//175 161//164
f 161//164 171//175 172//176 162//165
f 162//165 172//176 164//166 154//155
v 68.498009 1800.360596 -27.898035
v 63.337261 1801.656006 -34.697502
v 66.118538 1789.462280 -27.916285
v 70.223793 1788.640625 -20.859058
v 60.434399 1802.116455 -39.395969
v 62.655087 1789.786743 -32.993797
v 58.781551 1802.196899 -41.991455
v 60.857143 1789.856201 -35.409203
v 73.160667 1793.778320 -4.139745
v 72.754509 1782.806763 2.855353
v 73.387611 1795.196533 -7.370195
v 73.436302 1783.966797 -0.421149
v 73.273567 1795.772583 -8.682667
v 73.565041 1784.489136 -2.036906
v 72.455498 1797.890259 -14.496822
v 73.561195 1786.160034 -7.751194
v 71.796242 1798.990601 -18.105021
v 73.237862 1787.070557 -11.376560
v 70.476051 1799.939331 -23.138876
v 72.196739 1788.005737 -16.192366
v 66.119499 1773.468872 -20.606323
v 69.196892 1773.055054 -13.704525
v 62.672359 1773.524292 -25.424038
v 60.851086 1773.523438 -27.479990
v 70.010002 1769.639038 10.278666
v 70.801918 1770.379883 6.769550
v 70.958702 1770.623535 5.470469
v 71.350594 1771.630493 -0.351852
v 71.333626 1772.150391 -4.003569
v 70.838173 1772.668823 -8.642350
v 66.423943 1756.433472 -11.977311
v 68.497887 1756.347778 -5.206189
v 63.296474 1756.349487 -16.551781
v 61.604977 1756.298096 -18.490297
v 65.683937 1755.156982 17.265495
v 66.903160 1755.415161 14.060508
v 67.235100 1755.501587 12.875975
v 68.482918 1755.867554 7.498205
v 69.041420 1756.058594 4.085430
v 69.314751 1756.237671 -0.289945
v 58.402462 1789.851807 -38.242634
v 56.504650 1801.801636 -44.939693
v 58.161144 1773.600220 -29.967621
v 59.221569 1756.265503 -21.017685
v 68.498009 1800.360596 -27.898035
v 63.337261 1801.656006 -34.697502
v 66.118538 1789.462280 -27.916285
v 70.223793 1788.640625 -20.859058
v 60.434399 1802.116455 -39.395969
v 62.655087 1789.786743 -32.993797
v 58.781551 1802.196899 -41.991455
v 60.857143 1789.856201 -35.409203
v 73.160667 1793.778320 -4.139745
v 72.754509 1782.806763 2.855353
v 73.387611 1795.196533 -7.370195
v 73.436302 1783.966797 -0.421149
v 73.273567 1795.772583 -8.682667
v 73.565041 1784.489136 -2.036906
v 72.455498 1797.890259 -14.496822
v 73.561195 1786.160034 -7.751194
v 71.796242 1798.990601 -18.105021
v 73.237862 1787.070557 -11.376560
v 70.476051 1799.939331 -23.138876
v 72.196739 1788.005737 -16.192366
v 66.119499 1773.468872 -20.606323
v 69.196892 1773.055054 -13.704525
v 62.672359 1773.524292 -25.424038
v 60.851086 1773.523438 -27.479990
v 70.010002 1769.639038 10.278666
v 70.801918 1770.379883 6.769550
v 70.958702 1770.623535 5.470469
v 71.350594 1771.630493 -0.351852
v 71.333626 1772.150391 -4.003569
v 70.838173 1772.668823 -8.642350
v 66.423943 1756.433472 -11.977311
v 68.497887 1756.347778 -5.206189
v 63.296474 1756.349487 -16.551781
v 61.604977 1756.298096 -18.490297
v 65.683937 1755.156982 17.265495
v 66.903160 1755.415161 14.060508
v 67.235100 1755.501587 12.875975
v 68.482918 1755.867554 7.498205
v 69.041420 1756.058594 4.085430
v 69.314751 1756.237671 -0.289945
v 58.402462 1789.851807 -38.242634
v 56.504650 1801.801636 -44.939693
v 58.161144 1773.600220 -29.967621
v 59.221569 1756.265503 -21.017685
vn 0.831153 -0.160208 -0.532464
vn 0.871673 -0.197510 -0.448527
vn 0.815099 -0.211048 -0.539511
vn 0.819489 -0.143723 -0.554780
vn 0.788822 -0.209216 -0.577918
vn 0.820638 -0.145033 -0.552737
vn 0.750189 -0.246800 -0.613438
vn 0.787909 -0.187979 -0.586398
vn 0.687036 -0.298255 -0.662590
vn 0.749339 -0.232837 -0.619902
vn 0.963303 0.127954 0.235956
vn 0.943631 0.076328 0.322080
vn 0.992158 -0.027836 0.121855
vn 0.998926 0.032770 0.032743
vn 0.997133 -0.075624 0.002663
vn 0.997127 0.004495 -0.075615
vn 0.994902 -0.072766 -0.069823
vn 0.991367 0.029336 -0.127793
vn 0.983027 -0.085844 -0.162137
vn 0.976922 0.003596 -0.213564
vn 0.941916 -0.133947 -0.307980
vn 0.934480 -0.069929 -0.349081
vn 0.908014 -0.217672 -0.357953
vn 0.830870 -0.242416 -0.500889
vn 0.752952 -0.278248 -0.596357
vn 0.695002 -0.307879 -0.649756
vn 0.598982 -0.350119 -0.720164
vn 0.946308 -0.066410 0.316370
vn 0.976771 -0.137076 0.164706
vn 0.983314 -0.162714 0.081344
vn 0.987867 -0.153891 0.020892
vn 0.985006 -0.160506 -0.063251
vn 0.957205 -0.193066 -0.215603
vn 0.959542 -0.171962 -0.222955
vn 0.886341 -0.203938 -0.415703
vn 0.782229 -0.247350 -0.571783
vn 0.719122 -0.271407 -0.639689
vn 0.623019 -0.309409 -0.718410
vn 0.900429 -0.118107 0.418663
vn 0.940188 -0.149141 0.306272
vn 0.958172 -0.156960 0.239313
vn 0.973336 -0.128492 0.190021
vn 0.986453 -0.120233 0.111603
vn 0.988032 -0.146478 -0.048351
vn 0.831153 -0.160208 -0.532464
vn 0.871673 -0.197510 -0.448527
vn 0.815099 -0.211048 -0.539511
vn 0.819489 -0.143723 -0.554780
vn 0.788822 -0.209216 -0.577918
vn 0.820638 -0.145033 -0.552737
vn 0.750189 -0.246800 -0.613438
vn 0.787909 -0.187979 -0.586398
vn 0.687036 -0.298255 -0.662590
vn 0.749339 -0.232837 -0.619902
vn 0.963303 0.127954 0.235956
vn 0.943631 0.076328 0.322080
vn 0.992158 -0.027836 0.121855
vn 0.998926 0.032770 0.032743
vn 0.997133 -0.075624 0.002663
vn 0.997127 0.004495 -0.075615
vn 0.994902 -0.072766 -0.069823
vn 0.991367 0.029336 -0.127793
vn 0.983027 -0.085844 -0.162137
vn 0.976922 0.003596 -0.213564
vn 0.941916 -0.133947 -0.307980
vn 0.934480 -0.069929 -0.349081
vn 0.908014 -0.217672 -0.357953
vn 0.830870 -0.242416 -0.500889
vn 0.752952 -0.278248 -0.596357
vn 0.695002 -0.307879 -0.649756
vn 0.598982 -0.350119 -0.720164
vn 0.946308 -0.066410 0.316370
vn 0.976771 -0.137076 0.164706
vn 0.983314 -0.162714 0.081344
vn 0.987867 -0.153891 0.020892
vn 0.985006 -0.160506 -0.063251
vn 0.957205 -0.193066 -0.215603
vn 0.959542 -0.171962 -0.222955
vn 0.886341 -0.203938 -0.415703
vn 0.782229 -0.247350 -0.571783
vn 0.719122 -0.271407 -0.639689
vn 0.623019 -0.309409 -0.718410
vn 0.900429 -0.118107 0.418663
vn 0.940188 -0.149141 0.306272
vn 0.958172 -0.156960 0.239313
vn 0.973336 -0.128492 0.190021
vn 0.986453 -0.120233 0.111603
vn 0.988032 -0.146478 -0.048351
s 1
f 177//177 180//178 179//179 178//180
f 178//180 179//179 182//181 181//182
f 181//182 182//181 184//183 183//184
f 183//184 184//183 217//185 218//186
f 185//187 186//188 188//189 187//190
f 187//190 188//189 190//191 189//192
f 189//192 190//191 192//193 191//194
f 191//194 192//193 194//195 193//196
f 193//196 194//195 196//197 195//198
f 195//198 196//197 180//178 177//177
f 180//178 198//199 197//200 179//179
f 179//179 197//200 199//201 182//181
f 182//181 199//201 200//202 184//183
f 184//183 200//202 219//203 217//185
f 186//188 201//204 202//205 188//189
f 188//189 202//205 203//206 190//191
f 190//191 203//206 204//207 192//193
f 192//193 204//207 205//208 194//195
f 194//195 205//208 206//209 196//197
f 196//197 206//209 198//199 180//178
f 198//199 208//210 207//211 197//200
f 197//200 207//211 209//212 199//201
f 199//201 209//212 210//213 200//202
f 200//202 210//213 220//214 219//203
f 201//204 211//215 212//216 202//205
f 202//205 212//216 213//217 203//206
f 203//206 213//217 214//218 204//207
f 204//207 214//218 215//219 205//208
f 205//208 215//219 216//220 206//209
f 206//209 216//220 208//210 198//199
s 3
f 221//221 224//222 223//223 222//224
f 222//224 223//223 226//225 225//226
f 225//226 226//225 228//227 227//228
f 227//228 228//227 261//229 262//230
f 229//231 230//232 232//233 231//234
f 231//234 232//233 234//235 233//236
f 233//236 234//235 236//237 235//238
f 235//238 236//237 238//239 237//240
f 237//240 238//239 240//241 239//242
f 239//242 240//241 224//222 221//221
f 224//222 242//243 241//244 223//223
f 223//223 241//244 243//245 226//225
f 226//225 243//245 244//246 228//227
f 228//227 244//246 263//247 261//229
f 230//232 245//248 246//249 232//233
f 232//233 246//249 247//250 234//235
f 234//235 247//250 248//251 236//237
f 236//237 248//251 249//252 238//239
f 238//239 249//252 250//253 240//241
f 240//241 250//253 242//243 224//222
f 242//243 252//254 251//255 241//244
f 241//244 251//255 253//256 243//245
f 243//245 253//256 254//257 244//246
f 244//246 254//257 264//258 263//247
f 245//248 255//259 256//260 246//249
f 246//249 256//260 257//261 247//250
f 247//250 257//261 258//262 248//251
f 248//251 258//262 259//263 249//252
f 249//252 259//263 260//264 250//253
f 250//253 260//264 252//254 242//243
