# This file uses centimeters as units for non-parametric coordinates.

v 23.641140 1585.655151 80.473885
v 21.277264 1584.829102 81.744484
v 14.701823 1588.684326 82.040764
v 15.313045 1587.679810 82.322845
v 15.613246 1587.302979 82.414696
v 17.010036 1586.010254 82.641685
v 18.117733 1585.343628 82.649956
v 19.735226 1584.911255 82.296371
v 28.532360 1600.639648 80.897400
v 26.120281 1600.134521 82.067017
v 19.725246 1602.247314 82.111656
v 18.889538 1602.960571 81.735588
v 20.050060 1601.989014 82.238518
v 21.749935 1601.061401 82.571472
v 22.901272 1600.609497 82.647781
v 24.563457 1600.292847 82.412415
vn 0.363735 0.076933 0.928320
vn 0.353996 -0.126986 0.926586
vn 0.580335 -0.207909 0.787391
vn 0.568494 0.007641 0.822652
vn -0.237910 0.295548 0.925230
vn -0.331498 0.117986 0.936049
vn -0.268716 0.096602 0.958363
vn -0.193789 0.275073 0.941690
vn -0.204965 0.074498 0.975930
vn -0.128681 0.250548 0.959514
vn -0.094838 0.036435 0.994826
vn -0.028614 0.213121 0.976607
vn 0.045174 -0.012493 0.998901
vn 0.106146 0.165664 0.980453
vn 0.220224 -0.073912 0.972645
vn 0.232970 0.121039 0.964922
s 1
f 10//1 2//2 1//3 9//4
f 12//5 3//6 4//7 11//8
f 11//8 4//7 5//9 13//10
f 13//10 5//9 6//11 14//12
f 14//12 6//11 7//13 15//14
f 15//14 7//13 8//15 16//16
f 16//16 8//15 2//2 10//1
