# This file uses centimeters as units for non-parametric coordinates.

v 32.641689 1612.973022 75.189255
v 30.302288 1612.354492 76.562210
v 22.682232 1614.516235 76.232620
v 23.553570 1613.936768 76.822144
v 23.956722 1613.694458 77.038887
v 25.803875 1612.868652 77.535156
v 27.017391 1612.506104 77.578987
v 28.699184 1612.338867 77.140732
v 39.119015 1627.348389 63.114750
v 36.602566 1626.641357 64.737801
v 29.284283 1628.444458 66.529648
v 28.210094 1629.054199 66.035255
v 29.764645 1628.185913 66.688736
v 31.877254 1627.296631 66.710007
v 33.204006 1626.893433 66.436440
v 34.932217 1626.666504 65.617699
vn 0.411931 0.417767 0.809804
vn 0.364757 0.389477 0.845730
vn 0.401276 0.383345 0.831880
vn 0.406139 0.430066 0.806284
vn -0.098304 0.556911 0.824735
vn -0.171275 0.538073 0.825314
vn -0.121033 0.524642 0.842676
vn -0.032645 0.548584 0.835458
vn -0.037358 0.503329 0.863287
vn 0.086198 0.523311 0.847771
vn 0.081255 0.470808 0.878486
vn 0.221542 0.485701 0.845585
vn 0.211288 0.432344 0.876605
vn 0.343404 0.439875 0.829810
vn 0.303421 0.404528 0.862724
vn 0.404607 0.416126 0.814329
s 1
f 10//1 2//2 1//3 9//4
f 12//5 3//6 4//7 11//8
f 11//8 4//7 5//9 13//10
f 13//10 5//9 6//11 14//12
f 14//12 6//11 7//13 15//14
f 15//14 7//13 8//15 16//16
f 16//16 8//15 2//2 10//1
v 32.641689 1612.973022 75.189255
v 30.302288 1612.354492 76.562210
v 22.682232 1614.516235 76.232620
v 23.553570 1613.936768 76.822144
v 23.956722 1613.694458 77.038887
v 25.803875 1612.868652 77.535156
v 27.017391 1612.506104 77.578987
v 28.699184 1612.338867 77.140732
v 39.119015 1627.348389 63.114750
v 36.602566 1626.641357 64.737801
v 29.284283 1628.444458 66.529648
v 28.210094 1629.054199 66.035255
v 29.764645 1628.185913 66.688736
v 31.877254 1627.296631 66.710007
v 33.204006 1626.893433 66.436440
v 34.932217 1626.666504 65.617699
vn 0.411931 0.417767 0.809804
vn 0.364757 0.389477 0.845730
vn 0.401276 0.383345 0.831880
vn 0.406139 0.430066 0.806284
vn -0.098304 0.556911 0.824735
vn -0.171275 0.538073 0.825314
vn -0.121033 0.524642 0.842676
vn -0.032645 0.548584 0.835458
vn -0.037358 0.503329 0.863287
vn 0.086198 0.523311 0.847771
vn 0.081255 0.470808 0.878486
vn 0.221542 0.485701 0.845585
vn 0.211288 0.432344 0.876605
vn 0.343404 0.439875 0.829810
vn 0.303421 0.404528 0.862724
vn 0.404607 0.416126 0.814329
s 1
f 26//17 18//18 17//19 25//20
f 28//21 19//22 20//23 27//24
f 27//24 20//23 21//25 29//26
f 29//26 21//25 22//27 30//28
f 30//28 22//27 23//29 31//30
f 31//30 23//29 24//31 32//32
f 32//32 24//31 18//18 26//17
v 32.641689 1612.973022 75.189255
v 30.302288 1612.354492 76.562210
v 22.682232 1614.516235 76.232620
v 23.553570 1613.936768 76.822144
v 23.956722 1613.694458 77.038887
v 25.803875 1612.868652 77.535156
v 27.017391 1612.506104 77.578987
v 28.699184 1612.338867 77.140732
v 39.119015 1627.348389 63.114750
v 36.602566 1626.641357 64.737801
v 29.284283 1628.444458 66.529648
v 28.210094 1629.054199 66.035255
v 29.764645 1628.185913 66.688736
v 31.877254 1627.296631 66.710007
v 33.204006 1626.893433 66.436440
v 34.932217 1626.666504 65.617699
vn 0.411931 0.417767 0.809804
vn 0.364757 0.389477 0.845730
vn 0.401276 0.383345 0.831880
vn 0.406139 0.430066 0.806284
vn -0.098304 0.556911 0.824735
vn -0.171275 0.538073 0.825314
vn -0.121033 0.524642 0.842676
vn -0.032645 0.548584 0.835458
vn -0.037358 0.503329 0.863287
vn 0.086198 0.523311 0.847771
vn 0.081255 0.470808 0.878486
vn 0.221542 0.485701 0.845585
vn 0.211288 0.432344 0.876605
vn 0.343404 0.439875 0.829810
vn 0.303421 0.404528 0.862724
vn 0.404607 0.416126 0.814329
s 1
f 42//33 34//34 33//35 41//36
f 44//37 35//38 36//39 43//40
f 43//40 36//39 37//41 45//42
f 45//42 37//41 38//43 46//44
f 46//44 38//43 39//45 47//46
f 47//46 39//45 40//47 48//48
f 48//48 40//47 34//34 42//33
