# This file uses centimeters as units for non-parametric coordinates.

v -28.532360 1600.639648 80.897400
v -26.120281 1600.134521 82.067017
v -18.889538 1602.960571 81.735588
v -19.725246 1602.247314 82.111656
v -20.050060 1601.989014 82.238518
v -21.749935 1601.061401 82.571472
v -22.901272 1600.609497 82.647781
v -24.563457 1600.292847 82.412415
v -32.641689 1612.973022 75.189255
v -30.302288 1612.354492 76.562210
v -23.553570 1613.936768 76.822144
v -22.682232 1614.516235 76.232620
v -23.956722 1613.694458 77.038887
v -25.803875 1612.868652 77.535156
v -27.017391 1612.506104 77.578987
v -28.699184 1612.338867 77.140732
v -28.532360 1600.639648 80.897400
v -26.120281 1600.134521 82.067017
v -18.889538 1602.960571 81.735588
v -19.725246 1602.247314 82.111656
v -20.050060 1601.989014 82.238518
v -21.749935 1601.061401 82.571472
v -22.901272 1600.609497 82.647781
v -24.563457 1600.292847 82.412415
v -32.641689 1612.973022 75.189255
v -30.302288 1612.354492 76.562210
v -23.553570 1613.936768 76.822144
v -22.682232 1614.516235 76.232620
v -23.956722 1613.694458 77.038887
v -25.803875 1612.868652 77.535156
v -27.017391 1612.506104 77.578987
v -28.699184 1612.338867 77.140732
v -28.532360 1600.639648 80.897400
v -26.120281 1600.134521 82.067017
v -18.889538 1602.960571 81.735588
v -19.725246 1602.247314 82.111656
v -20.050060 1601.989014 82.238518
v -21.749935 1601.061401 82.571472
v -22.901272 1600.609497 82.647781
v -24.563457 1600.292847 82.412415
v -32.641689 1612.973022 75.189255
v -30.302288 1612.354492 76.562210
v -23.553570 1613.936768 76.822144
v -22.682232 1614.516235 76.232620
v -23.956722 1613.694458 77.038887
v -25.803875 1612.868652 77.535156
v -27.017391 1612.506104 77.578987
v -28.699184 1612.338867 77.140732
vn 0.374122 -0.274807 -0.885728
vn 0.333511 -0.289593 -0.897166
vn 0.406266 -0.262507 -0.875236
vn 0.406266 -0.262507 -0.875236
vn -0.150381 -0.456462 -0.876942
vn -0.150381 -0.456462 -0.876942
vn -0.136756 -0.448853 -0.883079
vn -0.144023 -0.452924 -0.879839
vn -0.027385 -0.407878 -0.912626
vn -0.038974 -0.411997 -0.910351
vn 0.026362 -0.388248 -0.921178
vn 0.020102 -0.390592 -0.920344
vn 0.163992 -0.340951 -0.925667
vn 0.174322 -0.337478 -0.925052
vn 0.250994 -0.313711 -0.915744
vn 0.260309 -0.311876 -0.913768
vn 0.374122 -0.274807 -0.885728
vn 0.333511 -0.289593 -0.897166
vn 0.406266 -0.262507 -0.875236
vn 0.406266 -0.262507 -0.875236
vn -0.150381 -0.456462 -0.876942
vn -0.150381 -0.456462 -0.876942
vn -0.136756 -0.448853 -0.883079
vn -0.144023 -0.452924 -0.879839
vn -0.027385 -0.407878 -0.912626
vn -0.038974 -0.411997 -0.910351
vn 0.026362 -0.388248 -0.921178
vn 0.020102 -0.390592 -0.920344
vn 0.163992 -0.340951 -0.925667
vn 0.174322 -0.337478 -0.925052
vn 0.250994 -0.313711 -0.915744
vn 0.260309 -0.311876 -0.913768
vn 0.374122 -0.274807 -0.885728
vn 0.333511 -0.289593 -0.897166
vn 0.406266 -0.262507 -0.875236
vn 0.406266 -0.262507 -0.875236
vn -0.150381 -0.456462 -0.876942
vn -0.150381 -0.456462 -0.876942
vn -0.136756 -0.448853 -0.883079
vn -0.144023 -0.452924 -0.879839
vn -0.027385 -0.407878 -0.912626
vn -0.038974 -0.411997 -0.910351
vn 0.026362 -0.388248 -0.921178
vn 0.020102 -0.390592 -0.920344
vn 0.163992 -0.340951 -0.925667
vn 0.174322 -0.337478 -0.925052
vn 0.250994 -0.313711 -0.915744
vn 0.260309 -0.311876 -0.913768
s 1
f 10//1 2//2 1//3 9//4
f 12//5 3//6 4//7 11//8
f 11//8 4//7 5//9 13//10
f 13//10 5//9 6//11 14//12
f 14//12 6//11 7//13 15//14
f 15//14 7//13 8//15 16//16
f 16//16 8//15 2//2 10//1
s 3
f 26//17 18//18 17//19 25//20
f 28//21 19//22 20//23 27//24
f 27//24 20//23 21//25 29//26
f 29//26 21//25 22//27 30//28
f 30//28 22//27 23//29 31//30
f 31//30 23//29 24//31 32//32
f 32//32 24//31 18//18 26//17
s 5
f 42//33 34//34 33//35 41//36
f 44//37 35//38 36//39 43//40
f 43//40 36//39 37//41 45//42
f 45//42 37//41 38//43 46//44
f 46//44 38//43 39//45 47//46
f 47//46 39//45 40//47 48//48
f 48//48 40//47 34//34 42//33
