# This file uses centimeters as units for non-parametric coordinates.

v -49.288570 1656.568237 45.112885
v -46.460079 1656.363403 47.640018
v -50.989147 1656.794067 43.432995
v -51.940548 1656.962158 42.420109
v -36.110210 1656.910278 51.469730
v -37.763470 1656.777344 51.362869
v -38.440487 1656.720093 51.280262
v -40.952282 1656.530151 50.724285
v -42.560955 1656.438232 50.103909
v -44.651546 1656.370117 48.952419
v -53.084835 1657.185547 41.075081
v -53.020870 1669.973755 37.068890
v -50.322857 1670.055176 39.968746
v -54.897015 1669.999390 34.485664
v -55.568905 1670.035400 33.469749
v -56.534222 1670.396973 31.630190
v -41.037197 1670.719971 45.331608
v -39.276165 1670.868774 45.722187
v -41.794247 1670.658936 45.134228
v -44.462093 1670.443604 44.208794
v -46.109997 1670.317993 43.280277
v -48.335659 1670.159668 41.746029
v -49.288570 1656.568237 45.112885
v -46.460079 1656.363403 47.640018
v -50.989147 1656.794067 43.432995
v -51.940548 1656.962158 42.420109
v -36.110210 1656.910278 51.469730
v -37.763470 1656.777344 51.362869
v -38.440487 1656.720093 51.280262
v -40.952282 1656.530151 50.724285
v -42.560955 1656.438232 50.103909
v -44.651546 1656.370117 48.952419
v -53.084835 1657.185547 41.075081
v -53.020870 1669.973755 37.068890
v -50.322857 1670.055176 39.968746
v -54.897015 1669.999390 34.485664
v -55.568905 1670.035400 33.469749
v -56.534222 1670.396973 31.630190
v -41.037197 1670.719971 45.331608
v -39.276165 1670.868774 45.722187
v -41.794247 1670.658936 45.134228
v -44.462093 1670.443604 44.208794
v -46.109997 1670.317993 43.280277
v -48.335659 1670.159668 41.746029
v -49.288570 1656.568237 45.112885
v -46.460079 1656.363403 47.640018
v -50.989147 1656.794067 43.432995
v -51.940548 1656.962158 42.420109
v -36.110210 1656.910278 51.469730
v -37.763470 1656.777344 51.362869
v -38.440487 1656.720093 51.280262
v -40.952282 1656.530151 50.724285
v -42.560955 1656.438232 50.103909
v -44.651546 1656.370117 48.952419
v -53.084835 1657.185547 41.075081
v -53.020870 1669.973755 37.068890
v -50.322857 1670.055176 39.968746
v -54.897015 1669.999390 34.485664
v -55.568905 1670.035400 33.469749
v -56.534222 1670.396973 31.630190
v -41.037197 1670.719971 45.331608
v -39.276165 1670.868774 45.722187
v -41.794247 1670.658936 45.134228
v -44.462093 1670.443604 44.208794
v -46.109997 1670.317993 43.280277
v -48.335659 1670.159668 41.746029
vn 0.665869 -0.220242 -0.712819
vn 0.645434 -0.227338 -0.729200
vn 0.697201 -0.209596 -0.685552
vn 0.720352 -0.201893 -0.663576
vn 0.747169 -0.195101 -0.635354
vn 0.749828 -0.201009 -0.630360
vn 0.771282 -0.198968 -0.604596
vn 0.793822 -0.185993 -0.579010
vn 0.804651 -0.179440 -0.565984
vn 0.804651 -0.179440 -0.565984
vn 0.163309 -0.351471 -0.921845
vn 0.163309 -0.351471 -0.921845
vn 0.174473 -0.351106 -0.919937
vn 0.179195 -0.350937 -0.919093
vn 0.263324 -0.341454 -0.902258
vn 0.270744 -0.340258 -0.900512
vn 0.328698 -0.327480 -0.885841
vn 0.354783 -0.320905 -0.878151
vn 0.469425 -0.289536 -0.834152
vn 0.490259 -0.283550 -0.824164
vn 0.553361 -0.262269 -0.790574
vn 0.580790 -0.251638 -0.774184
vn 0.665869 -0.220242 -0.712819
vn 0.645434 -0.227338 -0.729200
vn 0.697201 -0.209596 -0.685552
vn 0.720352 -0.201893 -0.663576
vn 0.747169 -0.195101 -0.635354
vn 0.749828 -0.201009 -0.630360
vn 0.771282 -0.198968 -0.604596
vn 0.793822 -0.185993 -0.579010
vn 0.804651 -0.179440 -0.565984
vn 0.804651 -0.179440 -0.565984
vn 0.163309 -0.351471 -0.921845
vn 0.163309 -0.351471 -0.921845
vn 0.174473 -0.351106 -0.919937
vn 0.179195 -0.350937 -0.919093
vn 0.263324 -0.341454 -0.902258
vn 0.270744 -0.340258 -0.900512
vn 0.328698 -0.327480 -0.885841
vn 0.354783 -0.320905 -0.878151
vn 0.469425 -0.289536 -0.834152
vn 0.490259 -0.283550 -0.824164
vn 0.553361 -0.262269 -0.790574
vn 0.580790 -0.251638 -0.774184
vn 0.665869 -0.220242 -0.712819
vn 0.645434 -0.227338 -0.729200
vn 0.697201 -0.209596 -0.685552
vn 0.720352 -0.201893 -0.663576
vn 0.747169 -0.195101 -0.635354
vn 0.749828 -0.201009 -0.630360
vn 0.771282 -0.198968 -0.604596
vn 0.793822 -0.185993 -0.579010
vn 0.804651 -0.179440 -0.565984
vn 0.804651 -0.179440 -0.565984
vn 0.163309 -0.351471 -0.921845
vn 0.163309 -0.351471 -0.921845
vn 0.174473 -0.351106 -0.919937
vn 0.179195 -0.350937 -0.919093
vn 0.263324 -0.341454 -0.902258
vn 0.270744 -0.340258 -0.900512
vn 0.328698 -0.327480 -0.885841
vn 0.354783 -0.320905 -0.878151
vn 0.469425 -0.289536 -0.834152
vn 0.490259 -0.283550 -0.824164
vn 0.553361 -0.262269 -0.790574
vn 0.580790 -0.251638 -0.774184
s 1
f 13//1 2//2 1//3 12//4
f 12//4 1//3 3//5 14//6
f 14//6 3//5 4//7 15//8
f 15//8 4//7 11//9 16//10
f 18//11 5//12 6//13 17//14
f 17//14 6//13 7//15 19//16
f 19//16 7//15 8//17 20//18
f 20//18 8//17 9//19 21//20
f 21//20 9//19 10//21 22//22
f 22//22 10//21 2//2 13//1
s 3
f 35//23 24//24 23//25 34//26
f 34//26 23//25 25//27 36//28
f 36//28 25//27 26//29 37//30
f 37//30 26//29 33//31 38//32
f 40//33 27//34 28//35 39//36
f 39//36 28//35 29//37 41//38
f 41//38 29//37 30//39 42//40
f 42//40 30//39 31//41 43//42
f 43//42 31//41 32//43 44//44
f 44//44 32//43 24//24 35//23
s 5
f 57//45 46//46 45//47 56//48
f 56//48 45//47 47//49 58//50
f 58//50 47//49 48//51 59//52
f 59//52 48//51 55//53 60//54
f 62//55 49//56 50//57 61//58
f 61//58 50//57 51//59 63//60
f 63//60 51//59 52//61 64//62
f 64//62 52//61 53//63 65//64
f 65//64 53//63 54//65 66//66
f 66//66 54//65 46//46 57//45
v -49.288570 1656.568237 45.112885
v -46.460079 1656.363403 47.640018
v -50.989147 1656.794067 43.432995
v -51.940548 1656.962158 42.420109
v -36.110210 1656.910278 51.469730
v -37.763470 1656.777344 51.362869
v -38.440487 1656.720093 51.280262
v -40.952282 1656.530151 50.724285
v -42.560955 1656.438232 50.103909
v -44.651546 1656.370117 48.952419
v -53.084835 1657.185547 41.075081
v -53.020870 1669.973755 37.068890
v -50.322857 1670.055176 39.968746
v -54.897015 1669.999390 34.485664
v -55.568905 1670.035400 33.469749
v -56.534222 1670.396973 31.630190
v -41.037197 1670.719971 45.331608
v -39.276165 1670.868774 45.722187
v -41.794247 1670.658936 45.134228
v -44.462093 1670.443604 44.208794
v -46.109997 1670.317993 43.280277
v -48.335659 1670.159668 41.746029
v -49.288570 1656.568237 45.112885
v -46.460079 1656.363403 47.640018
v -50.989147 1656.794067 43.432995
v -51.940548 1656.962158 42.420109
v -36.110210 1656.910278 51.469730
v -37.763470 1656.777344 51.362869
v -38.440487 1656.720093 51.280262
v -40.952282 1656.530151 50.724285
v -42.560955 1656.438232 50.103909
v -44.651546 1656.370117 48.952419
v -53.084835 1657.185547 41.075081
v -53.020870 1669.973755 37.068890
v -50.322857 1670.055176 39.968746
v -54.897015 1669.999390 34.485664
v -55.568905 1670.035400 33.469749
v -56.534222 1670.396973 31.630190
v -41.037197 1670.719971 45.331608
v -39.276165 1670.868774 45.722187
v -41.794247 1670.658936 45.134228
v -44.462093 1670.443604 44.208794
v -46.109997 1670.317993 43.280277
v -48.335659 1670.159668 41.746029
v -49.288570 1656.568237 45.112885
v -46.460079 1656.363403 47.640018
v -50.989147 1656.794067 43.432995
v -51.940548 1656.962158 42.420109
v -36.110210 1656.910278 51.469730
v -37.763470 1656.777344 51.362869
v -38.440487 1656.720093 51.280262
v -40.952282 1656.530151 50.724285
v -42.560955 1656.438232 50.103909
v -44.651546 1656.370117 48.952419
v -53.084835 1657.185547 41.075081
v -53.020870 1669.973755 37.068890
v -50.322857 1670.055176 39.968746
v -54.897015 1669.999390 34.485664
v -55.568905 1670.035400 33.469749
v -56.534222 1670.396973 31.630190
v -41.037197 1670.719971 45.331608
v -39.276165 1670.868774 45.722187
v -41.794247 1670.658936 45.134228
v -44.462093 1670.443604 44.208794
v -46.109997 1670.317993 43.280277
v -48.335659 1670.159668 41.746029
vn 0.665869 -0.220242 -0.712819
vn 0.645434 -0.227338 -0.729200
vn 0.697201 -0.209596 -0.685552
vn 0.720352 -0.201893 -0.663576
vn 0.747169 -0.195101 -0.635354
vn 0.749828 -0.201009 -0.630360
vn 0.771282 -0.198968 -0.604596
vn 0.793822 -0.185993 -0.579010
vn 0.804651 -0.179440 -0.565984
vn 0.804651 -0.179440 -0.565984
vn 0.163309 -0.351471 -0.921845
vn 0.163309 -0.351471 -0.921845
vn 0.174473 -0.351106 -0.919937
vn 0.179195 -0.350937 -0.919093
vn 0.263324 -0.341454 -0.902258
vn 0.270744 -0.340258 -0.900512
vn 0.328698 -0.327480 -0.885841
vn 0.354783 -0.320905 -0.878151
vn 0.469425 -0.289536 -0.834152
vn 0.490259 -0.283550 -0.824164
vn 0.553361 -0.262269 -0.790574
vn 0.580790 -0.251638 -0.774184
vn 0.665869 -0.220242 -0.712819
vn 0.645434 -0.227338 -0.729200
vn 0.697201 -0.209596 -0.685552
vn 0.720352 -0.201893 -0.663576
vn 0.747169 -0.195101 -0.635354
vn 0.749828 -0.201009 -0.630360
vn 0.771282 -0.198968 -0.604596
vn 0.793822 -0.185993 -0.579010
vn 0.804651 -0.179440 -0.565984
vn 0.804651 -0.179440 -0.565984
vn 0.163309 -0.351471 -0.921845
vn 0.163309 -0.351471 -0.921845
vn 0.174473 -0.351106 -0.919937
vn 0.179195 -0.350937 -0.919093
vn 0.263324 -0.341454 -0.902258
vn 0.270744 -0.340258 -0.900512
vn 0.328698 -0.327480 -0.885841
vn 0.354783 -0.320905 -0.878151
vn 0.469425 -0.289536 -0.834152
vn 0.490259 -0.283550 -0.824164
vn 0.553361 -0.262269 -0.790574
vn 0.580790 -0.251638 -0.774184
vn 0.665869 -0.220242 -0.712819
vn 0.645434 -0.227338 -0.729200
vn 0.697201 -0.209596 -0.685552
vn 0.720352 -0.201893 -0.663576
vn 0.747169 -0.195101 -0.635354
vn 0.749828 -0.201009 -0.630360
vn 0.771282 -0.198968 -0.604596
vn 0.793822 -0.185993 -0.579010
vn 0.804651 -0.179440 -0.565984
vn 0.804651 -0.179440 -0.565984
vn 0.163309 -0.351471 -0.921845
vn 0.163309 -0.351471 -0.921845
vn 0.174473 -0.351106 -0.919937
vn 0.179195 -0.350937 -0.919093
vn 0.263324 -0.341454 -0.902258
vn 0.270744 -0.340258 -0.900512
vn 0.328698 -0.327480 -0.885841
vn 0.354783 -0.320905 -0.878151
vn 0.469425 -0.289536 -0.834152
vn 0.490259 -0.283550 -0.824164
vn 0.553361 -0.262269 -0.790574
vn 0.580790 -0.251638 -0.774184
s 1
f 79//67 68//68 67//69 78//70
f 78//70 67//69 69//71 80//72
f 80//72 69//71 70//73 81//74
f 81//74 70//73 77//75 82//76
f 84//77 71//78 72//79 83//80
f 83//80 72//79 73//81 85//82
f 85//82 73//81 74//83 86//84
f 86//84 74//83 75//85 87//86
f 87//86 75//85 76//87 88//88
f 88//88 76//87 68//68 79//67
s 3
f 101//89 90//90 89//91 100//92
f 100//92 89//91 91//93 102//94
f 102//94 91//93 92//95 103//96
f 103//96 92//95 99//97 104//98
f 106//99 93//100 94//101 105//102
f 105//102 94//101 95//103 107//104
f 107//104 95//103 96//105 108//106
f 108//106 96//105 97//107 109//108
f 109//108 97//107 98//109 110//110
f 110//110 98//109 90//90 101//89
s 5
f 123//111 112//112 111//113 122//114
f 122//114 111//113 113//115 124//116
f 124//116 113//115 114//117 125//118
f 125//118 114//117 121//119 126//120
f 128//121 115//122 116//123 127//124
f 127//124 116//123 117//125 129//126
f 129//126 117//125 118//127 130//128
f 130//128 118//127 119//129 131//130
f 131//130 119//129 120//131 132//132
f 132//132 120//131 112//112 123//111
v -49.288570 1656.568237 45.112885
v -46.460079 1656.363403 47.640018
v -50.989147 1656.794067 43.432995
v -51.940548 1656.962158 42.420109
v -36.110210 1656.910278 51.469730
v -37.763470 1656.777344 51.362869
v -38.440487 1656.720093 51.280262
v -40.952282 1656.530151 50.724285
v -42.560955 1656.438232 50.103909
v -44.651546 1656.370117 48.952419
v -53.084835 1657.185547 41.075081
v -53.020870 1669.973755 37.068890
v -50.322857 1670.055176 39.968746
v -54.897015 1669.999390 34.485664
v -55.568905 1670.035400 33.469749
v -56.534222 1670.396973 31.630190
v -41.037197 1670.719971 45.331608
v -39.276165 1670.868774 45.722187
v -41.794247 1670.658936 45.134228
v -44.462093 1670.443604 44.208794
v -46.109997 1670.317993 43.280277
v -48.335659 1670.159668 41.746029
v -49.288570 1656.568237 45.112885
v -46.460079 1656.363403 47.640018
v -50.989147 1656.794067 43.432995
v -51.940548 1656.962158 42.420109
v -36.110210 1656.910278 51.469730
v -37.763470 1656.777344 51.362869
v -38.440487 1656.720093 51.280262
v -40.952282 1656.530151 50.724285
v -42.560955 1656.438232 50.103909
v -44.651546 1656.370117 48.952419
v -53.084835 1657.185547 41.075081
v -53.020870 1669.973755 37.068890
v -50.322857 1670.055176 39.968746
v -54.897015 1669.999390 34.485664
v -55.568905 1670.035400 33.469749
v -56.534222 1670.396973 31.630190
v -41.037197 1670.719971 45.331608
v -39.276165 1670.868774 45.722187
v -41.794247 1670.658936 45.134228
v -44.462093 1670.443604 44.208794
v -46.109997 1670.317993 43.280277
v -48.335659 1670.159668 41.746029
v -49.288570 1656.568237 45.112885
v -46.460079 1656.363403 47.640018
v -50.989147 1656.794067 43.432995
v -51.940548 1656.962158 42.420109
v -36.110210 1656.910278 51.469730
v -37.763470 1656.777344 51.362869
v -38.440487 1656.720093 51.280262
v -40.952282 1656.530151 50.724285
v -42.560955 1656.438232 50.103909
v -44.651546 1656.370117 48.952419
v -53.084835 1657.185547 41.075081
v -53.020870 1669.973755 37.068890
v -50.322857 1670.055176 39.968746
v -54.897015 1669.999390 34.485664
v -55.568905 1670.035400 33.469749
v -56.534222 1670.396973 31.630190
v -41.037197 1670.719971 45.331608
v -39.276165 1670.868774 45.722187
v -41.794247 1670.658936 45.134228
v -44.462093 1670.443604 44.208794
v -46.109997 1670.317993 43.280277
v -48.335659 1670.159668 41.746029
vn 0.665869 -0.220242 -0.712819
vn 0.645434 -0.227338 -0.729200
vn 0.697201 -0.209596 -0.685552
vn 0.720352 -0.201893 -0.663576
vn 0.747169 -0.195101 -0.635354
vn 0.749828 -0.201009 -0.630360
vn 0.771282 -0.198968 -0.604596
vn 0.793822 -0.185993 -0.579010
vn 0.804651 -0.179440 -0.565984
vn 0.804651 -0.179440 -0.565984
vn 0.163309 -0.351471 -0.921845
vn 0.163309 -0.351471 -0.921845
vn 0.174473 -0.351106 -0.919937
vn 0.179195 -0.350937 -0.919093
vn 0.263324 -0.341454 -0.902258
vn 0.270744 -0.340258 -0.900512
vn 0.328698 -0.327480 -0.885841
vn 0.354783 -0.320905 -0.878151
vn 0.469425 -0.289536 -0.834152
vn 0.490259 -0.283550 -0.824164
vn 0.553361 -0.262269 -0.790574
vn 0.580790 -0.251638 -0.774184
vn 0.665869 -0.220242 -0.712819
vn 0.645434 -0.227338 -0.729200
vn 0.697201 -0.209596 -0.685552
vn 0.720352 -0.201893 -0.663576
vn 0.747169 -0.195101 -0.635354
vn 0.749828 -0.201009 -0.630360
vn 0.771282 -0.198968 -0.604596
vn 0.793822 -0.185993 -0.579010
vn 0.804651 -0.179440 -0.565984
vn 0.804651 -0.179440 -0.565984
vn 0.163309 -0.351471 -0.921845
vn 0.163309 -0.351471 -0.921845
vn 0.174473 -0.351106 -0.919937
vn 0.179195 -0.350937 -0.919093
vn 0.263324 -0.341454 -0.902258
vn 0.270744 -0.340258 -0.900512
vn 0.328698 -0.327480 -0.885841
vn 0.354783 -0.320905 -0.878151
vn 0.469425 -0.289536 -0.834152
vn 0.490259 -0.283550 -0.824164
vn 0.553361 -0.262269 -0.790574
vn 0.580790 -0.251638 -0.774184
vn 0.665869 -0.220242 -0.712819
vn 0.645434 -0.227338 -0.729200
vn 0.697201 -0.209596 -0.685552
vn 0.720352 -0.201893 -0.663576
vn 0.747169 -0.195101 -0.635354
vn 0.749828 -0.201009 -0.630360
vn 0.771282 -0.198968 -0.604596
vn 0.793822 -0.185993 -0.579010
vn 0.804651 -0.179440 -0.565984
vn 0.804651 -0.179440 -0.565984
vn 0.163309 -0.351471 -0.921845
vn 0.163309 -0.351471 -0.921845
vn 0.174473 -0.351106 -0.919937
vn 0.179195 -0.350937 -0.919093
vn 0.263324 -0.341454 -0.902258
vn 0.270744 -0.340258 -0.900512
vn 0.328698 -0.327480 -0.885841
vn 0.354783 -0.320905 -0.878151
vn 0.469425 -0.289536 -0.834152
vn 0.490259 -0.283550 -0.824164
vn 0.553361 -0.262269 -0.790574
vn 0.580790 -0.251638 -0.774184
s 1
f 145//133 134//134 133//135 144//136
f 144//136 133//135 135//137 146//138
f 146//138 135//137 136//139 147//140
f 147//140 136//139 143//141 148//142
f 150//143 137//144 138//145 149//146
f 149//146 138//145 139//147 151//148
f 151//148 139//147 140//149 152//150
f 152//150 140//149 141//151 153//152
f 153//152 141//151 142//153 154//154
f 154//154 142//153 134//134 145//133
s 3
f 167//155 156//156 155//157 166//158
f 166//158 155//157 157//159 168//160
f 168//160 157//159 158//161 169//162
f 169//162 158//161 165//163 170//164
f 172//165 159//166 160//167 171//168
f 171//168 160//167 161//169 173//170
f 173//170 161//169 162//171 174//172
f 174//172 162//171 163//173 175//174
f 175//174 163//173 164//175 176//176
f 176//176 164//175 156//156 167//155
s 5
f 189//177 178//178 177//179 188//180
f 188//180 177//179 179//181 190//182
f 190//182 179//181 180//183 191//184
f 191//184 180//183 187//185 192//186
f 194//187 181//188 182//189 193//190
f 193//190 182//189 183//191 195//192
f 195//192 183//191 184//193 196//194
f 196//194 184//193 185//195 197//196
f 197//196 185//195 186//197 198//198
f 198//198 186//197 178//178 189//177
